<svg xmlns="http://www.w3.org/2000/svg" xmlns:xlink="http://www.w3.org/1999/xlink" width="500" zoomAndPan="magnify" viewBox="0 0 375 131.249995" height="175" preserveAspectRatio="xMidYMid meet" version="1.0"><defs><g/><clipPath id="fe18c4471b"><path d="M 1.066406 0 L 373.933594 0 L 373.933594 130.503906 L 1.066406 130.503906 Z M 1.066406 0 " clip-rule="nonzero"/></clipPath><clipPath id="dce64b9af9"><path d="M 1.066406 16.226562 L 98.933594 16.226562 L 98.933594 114.097656 L 1.066406 114.097656 Z M 1.066406 16.226562 " clip-rule="nonzero"/></clipPath><clipPath id="b4632f7571"><path d="M 66.382812 53.210938 L 86.859375 53.210938 L 86.859375 74 L 66.382812 74 Z M 66.382812 53.210938 " clip-rule="nonzero"/></clipPath><clipPath id="f62bc8da16"><path d="M 32.152344 63.875 L 67.511719 63.875 L 67.511719 93.222656 L 32.152344 93.222656 Z M 32.152344 63.875 " clip-rule="nonzero"/></clipPath></defs><g clip-path="url(#fe18c4471b)"><path fill="#ffffff" d="M 1.066406 0 L 373.933594 0 L 373.933594 130.503906 L 1.066406 130.503906 Z M 1.066406 0 " fill-opacity="1" fill-rule="nonzero"/><path fill="#ffffff" d="M 1.066406 0 L 373.933594 0 L 373.933594 130.503906 L 1.066406 130.503906 Z M 1.066406 0 " fill-opacity="1" fill-rule="nonzero"/></g><g clip-path="url(#dce64b9af9)"><path fill="#ffde59" d="M 99.105469 65.25 C 99.105469 66.855469 99.027344 68.457031 98.871094 70.054688 C 98.714844 71.652344 98.480469 73.238281 98.164062 74.8125 C 97.851562 76.386719 97.460938 77.941406 96.996094 79.476562 C 96.53125 81.015625 95.988281 82.523438 95.375 84.007812 C 94.761719 85.492188 94.074219 86.941406 93.320312 88.355469 C 92.5625 89.773438 91.738281 91.148438 90.847656 92.484375 C 89.953125 93.816406 89 95.105469 87.980469 96.347656 C 86.960938 97.585938 85.882812 98.777344 84.75 99.910156 C 83.613281 101.046875 82.425781 102.125 81.183594 103.140625 C 79.945312 104.160156 78.65625 105.117188 77.320312 106.007812 C 75.984375 106.898438 74.609375 107.722656 73.195312 108.480469 C 71.777344 109.238281 70.328125 109.921875 68.847656 110.539062 C 67.363281 111.152344 65.851562 111.691406 64.316406 112.15625 C 62.78125 112.625 61.222656 113.015625 59.648438 113.328125 C 58.074219 113.640625 56.488281 113.875 54.890625 114.03125 C 53.292969 114.191406 51.691406 114.269531 50.085938 114.269531 C 48.480469 114.269531 46.878906 114.191406 45.28125 114.03125 C 43.683594 113.875 42.097656 113.640625 40.523438 113.328125 C 38.949219 113.015625 37.394531 112.625 35.855469 112.15625 C 34.320312 111.691406 32.808594 111.152344 31.328125 110.539062 C 29.84375 109.921875 28.394531 109.238281 26.976562 108.480469 C 25.5625 107.722656 24.1875 106.898438 22.851562 106.007812 C 21.515625 105.117188 20.230469 104.160156 18.988281 103.140625 C 17.746094 102.125 16.558594 101.046875 15.421875 99.910156 C 14.289062 98.777344 13.210938 97.585938 12.191406 96.347656 C 11.175781 95.105469 10.21875 93.816406 9.328125 92.484375 C 8.433594 91.148438 7.609375 89.773438 6.855469 88.355469 C 6.097656 86.941406 5.410156 85.492188 4.796875 84.007812 C 4.183594 82.523438 3.640625 81.015625 3.175781 79.476562 C 2.710938 77.941406 2.320312 76.386719 2.007812 74.8125 C 1.695312 73.238281 1.457031 71.652344 1.300781 70.054688 C 1.144531 68.457031 1.066406 66.855469 1.066406 65.25 C 1.066406 63.640625 1.144531 62.039062 1.300781 60.441406 C 1.457031 58.84375 1.695312 57.257812 2.007812 55.683594 C 2.320312 54.109375 2.710938 52.554688 3.175781 51.019531 C 3.640625 49.480469 4.183594 47.972656 4.796875 46.488281 C 5.410156 45.003906 6.097656 43.554688 6.855469 42.140625 C 7.609375 40.722656 8.433594 39.347656 9.328125 38.011719 C 10.21875 36.679688 11.175781 35.390625 12.191406 34.148438 C 13.210938 32.910156 14.289062 31.71875 15.421875 30.585938 C 16.558594 29.449219 17.746094 28.371094 18.988281 27.355469 C 20.230469 26.335938 21.515625 25.378906 22.851562 24.488281 C 24.1875 23.597656 25.5625 22.773438 26.976562 22.015625 C 28.394531 21.257812 29.84375 20.574219 31.328125 19.957031 C 32.808594 19.34375 34.320312 18.804688 35.855469 18.339844 C 37.394531 17.871094 38.949219 17.480469 40.523438 17.167969 C 42.097656 16.855469 43.683594 16.621094 45.28125 16.464844 C 46.878906 16.304688 48.480469 16.226562 50.085938 16.226562 C 51.691406 16.226562 53.292969 16.304688 54.890625 16.464844 C 56.488281 16.621094 58.074219 16.855469 59.648438 17.167969 C 61.222656 17.480469 62.78125 17.871094 64.316406 18.339844 C 65.851562 18.804688 67.363281 19.34375 68.847656 19.957031 C 70.328125 20.574219 71.777344 21.257812 73.195312 22.015625 C 74.609375 22.773438 75.984375 23.597656 77.320312 24.488281 C 78.65625 25.378906 79.945312 26.335938 81.183594 27.355469 C 82.425781 28.371094 83.613281 29.449219 84.75 30.585938 C 85.882812 31.71875 86.960938 32.910156 87.980469 34.148438 C 89 35.390625 89.953125 36.679688 90.847656 38.011719 C 91.738281 39.347656 92.5625 40.722656 93.320312 42.140625 C 94.074219 43.554688 94.761719 45.003906 95.375 46.488281 C 95.988281 47.972656 96.53125 49.480469 96.996094 51.019531 C 97.460938 52.554688 97.851562 54.109375 98.164062 55.683594 C 98.480469 57.257812 98.714844 58.84375 98.871094 60.441406 C 99.027344 62.039062 99.105469 63.640625 99.105469 65.25 Z M 99.105469 65.25 " fill-opacity="1" fill-rule="nonzero"/><path fill="#ffffff" d="M 50.007812 114.097656 C 36.945312 114.097656 24.640625 109.007812 15.398438 99.765625 C 6.15625 90.519531 1.066406 78.234375 1.066406 65.171875 C 1.066406 52.105469 6.15625 39.800781 15.398438 30.558594 C 24.640625 21.316406 36.925781 16.226562 50.007812 16.226562 C 63.09375 16.226562 75.359375 21.316406 84.601562 30.558594 C 93.84375 39.800781 98.933594 52.085938 98.933594 65.171875 C 98.933594 78.253906 93.84375 90.519531 84.601562 99.765625 C 75.359375 109.007812 63.074219 114.097656 50.007812 114.097656 Z M 50.007812 19.152344 C 37.726562 19.152344 26.160156 23.929688 17.464844 32.625 C 8.769531 41.324219 3.992188 52.867188 3.992188 65.171875 C 3.992188 77.476562 8.769531 89.019531 17.464844 97.714844 C 26.160156 106.414062 37.707031 111.191406 50.007812 111.191406 C 62.3125 111.191406 73.859375 106.414062 82.554688 97.714844 C 91.25 89.019531 96.027344 77.476562 96.027344 65.171875 C 96.027344 52.867188 91.25 41.324219 82.554688 32.625 C 73.839844 23.929688 62.292969 19.152344 50.007812 19.152344 Z M 50.007812 19.152344 " fill-opacity="1" fill-rule="nonzero"/></g><path fill="#ffffff" d="M 49.035156 107.992188 L 48.917969 107.992188 C 48.488281 107.972656 48.15625 107.621094 48.175781 107.210938 C 48.195312 106.804688 48.527344 106.472656 48.9375 106.472656 C 48.9375 106.472656 48.957031 106.472656 48.957031 106.472656 L 49.054688 106.472656 C 49.484375 106.492188 49.816406 106.84375 49.796875 107.25 C 49.796875 107.660156 49.464844 107.992188 49.035156 107.992188 Z M 52.894531 107.894531 C 52.484375 107.894531 52.15625 107.582031 52.136719 107.171875 C 52.117188 106.746094 52.425781 106.394531 52.855469 106.355469 L 52.933594 106.355469 C 53.363281 106.316406 53.734375 106.648438 53.753906 107.058594 C 53.792969 107.484375 53.460938 107.855469 53.050781 107.875 L 52.953125 107.875 C 52.914062 107.894531 52.894531 107.894531 52.894531 107.894531 Z M 45.113281 107.71875 C 45.09375 107.71875 45.058594 107.71875 45.019531 107.71875 L 44.921875 107.699219 C 44.492188 107.640625 44.199219 107.269531 44.257812 106.84375 C 44.316406 106.414062 44.6875 106.121094 45.113281 106.179688 L 45.210938 106.199219 C 45.640625 106.238281 45.933594 106.628906 45.894531 107.058594 C 45.816406 107.425781 45.484375 107.71875 45.113281 107.71875 Z M 56.796875 107.445312 C 56.425781 107.445312 56.09375 107.171875 56.035156 106.804688 C 55.957031 106.394531 56.25 105.984375 56.679688 105.925781 L 56.777344 105.90625 C 57.183594 105.847656 57.59375 106.121094 57.652344 106.550781 C 57.710938 106.980469 57.4375 107.367188 57.011719 107.425781 L 56.914062 107.445312 C 56.894531 107.445312 56.855469 107.445312 56.796875 107.445312 Z M 41.214844 107.078125 C 41.15625 107.078125 41.117188 107.078125 41.058594 107.058594 L 40.960938 107.039062 C 40.550781 106.941406 40.277344 106.53125 40.375 106.121094 C 40.472656 105.710938 40.882812 105.4375 41.292969 105.535156 L 41.390625 105.554688 C 41.800781 105.652344 42.074219 106.042969 41.976562 106.472656 C 41.898438 106.84375 41.566406 107.078125 41.214844 107.078125 Z M 60.65625 106.648438 C 60.304688 106.648438 59.992188 106.414062 59.914062 106.0625 C 59.816406 105.652344 60.050781 105.222656 60.480469 105.125 L 60.558594 105.105469 C 60.96875 104.988281 61.398438 105.242188 61.496094 105.652344 C 61.613281 106.0625 61.359375 106.492188 60.949219 106.589844 L 60.851562 106.609375 C 60.792969 106.628906 60.714844 106.648438 60.65625 106.648438 Z M 37.414062 106.082031 C 37.335938 106.082031 37.257812 106.0625 37.179688 106.042969 L 37.101562 106.023438 C 36.691406 105.886719 36.457031 105.457031 36.59375 105.046875 C 36.730469 104.640625 37.140625 104.425781 37.550781 104.542969 L 37.648438 104.5625 C 38.054688 104.675781 38.269531 105.125 38.152344 105.515625 C 38.035156 105.867188 37.726562 106.082031 37.414062 106.082031 Z M 64.417969 105.457031 C 64.109375 105.457031 63.816406 105.261719 63.699219 104.949219 C 63.5625 104.5625 63.757812 104.113281 64.167969 103.976562 L 64.246094 103.9375 C 64.632812 103.800781 65.082031 103.996094 65.238281 104.386719 C 65.375 104.773438 65.179688 105.222656 64.789062 105.378906 L 64.691406 105.417969 C 64.59375 105.457031 64.515625 105.457031 64.417969 105.457031 Z M 33.707031 104.734375 C 33.609375 104.734375 33.511719 104.714844 33.414062 104.675781 L 33.316406 104.640625 C 32.929688 104.464844 32.753906 104.015625 32.910156 103.625 C 33.082031 103.234375 33.53125 103.058594 33.921875 103.214844 L 34 103.253906 C 34.390625 103.410156 34.585938 103.859375 34.410156 104.269531 C 34.292969 104.542969 34 104.734375 33.707031 104.734375 Z M 68.066406 103.9375 C 67.773438 103.9375 67.5 103.78125 67.382812 103.507812 C 67.207031 103.117188 67.363281 102.667969 67.734375 102.472656 L 67.832031 102.433594 C 68.222656 102.257812 68.671875 102.414062 68.867188 102.804688 C 69.042969 103.195312 68.886719 103.644531 68.496094 103.820312 L 68.417969 103.859375 C 68.28125 103.917969 68.164062 103.9375 68.066406 103.9375 Z M 30.140625 103.019531 C 30.023438 103.019531 29.886719 102.980469 29.769531 102.921875 L 29.691406 102.882812 C 29.320312 102.6875 29.183594 102.222656 29.378906 101.851562 C 29.574219 101.480469 30.042969 101.34375 30.414062 101.539062 L 30.492188 101.578125 C 30.859375 101.773438 30.996094 102.242188 30.800781 102.609375 C 30.683594 102.882812 30.414062 103.019531 30.140625 103.019531 Z M 71.539062 102.085938 C 71.285156 102.085938 71.03125 101.949219 70.875 101.714844 C 70.660156 101.34375 70.777344 100.875 71.128906 100.660156 L 71.207031 100.601562 C 71.578125 100.386719 72.042969 100.503906 72.257812 100.875 C 72.472656 101.246094 72.355469 101.714844 71.984375 101.929688 L 71.90625 101.96875 C 71.808594 102.046875 71.671875 102.085938 71.539062 102.085938 Z M 26.746094 100.992188 C 26.609375 100.992188 26.453125 100.953125 26.316406 100.855469 L 26.238281 100.796875 C 25.886719 100.5625 25.789062 100.09375 26.023438 99.726562 C 26.257812 99.375 26.726562 99.277344 27.097656 99.511719 L 27.175781 99.570312 C 27.527344 99.804688 27.625 100.269531 27.390625 100.640625 C 27.253906 100.875 27 100.992188 26.746094 100.992188 Z M 74.832031 99.898438 C 74.597656 99.898438 74.363281 99.785156 74.207031 99.589844 C 73.957031 99.257812 74.035156 98.769531 74.363281 98.515625 L 74.441406 98.457031 C 74.792969 98.203125 75.261719 98.28125 75.515625 98.613281 C 75.769531 98.964844 75.691406 99.433594 75.359375 99.6875 L 75.28125 99.746094 C 75.144531 99.859375 74.988281 99.898438 74.832031 99.898438 Z M 23.566406 98.671875 C 23.390625 98.671875 23.21875 98.613281 23.082031 98.496094 L 23.003906 98.4375 C 22.671875 98.164062 22.613281 97.695312 22.886719 97.367188 C 23.160156 97.035156 23.625 96.976562 23.957031 97.25 L 24.035156 97.308594 C 24.367188 97.578125 24.40625 98.066406 24.152344 98.378906 C 24.015625 98.574219 23.800781 98.671875 23.566406 98.671875 Z M 77.894531 97.425781 C 77.679688 97.425781 77.464844 97.347656 77.328125 97.171875 C 77.054688 96.859375 77.074219 96.371094 77.386719 96.097656 L 77.464844 96.039062 C 77.777344 95.746094 78.265625 95.785156 78.558594 96.097656 C 78.851562 96.410156 78.8125 96.898438 78.5 97.191406 L 78.441406 97.25 C 78.265625 97.367188 78.070312 97.425781 77.894531 97.425781 Z M 20.625 96.039062 C 20.429688 96.039062 20.234375 95.960938 20.097656 95.824219 L 20.019531 95.746094 C 19.707031 95.453125 19.707031 94.96875 20.019531 94.65625 C 20.3125 94.34375 20.800781 94.34375 21.109375 94.65625 L 21.167969 94.714844 C 21.480469 95.007812 21.480469 95.492188 21.1875 95.804688 C 21.03125 95.980469 20.820312 96.039062 20.625 96.039062 Z M 80.722656 94.675781 C 80.527344 94.675781 80.351562 94.617188 80.195312 94.460938 C 79.882812 94.167969 79.863281 93.679688 80.15625 93.367188 L 80.214844 93.289062 C 80.507812 92.976562 80.996094 92.957031 81.304688 93.25 C 81.617188 93.542969 81.636719 94.03125 81.34375 94.34375 L 81.285156 94.402344 C 81.132812 94.597656 80.917969 94.675781 80.722656 94.675781 Z M 17.933594 93.171875 C 17.71875 93.171875 17.503906 93.074219 17.347656 92.898438 L 17.289062 92.820312 C 17.015625 92.492188 17.054688 92.023438 17.386719 91.730469 C 17.71875 91.457031 18.1875 91.496094 18.480469 91.828125 L 18.535156 91.90625 C 18.808594 92.238281 18.769531 92.703125 18.441406 92.996094 C 18.285156 93.113281 18.109375 93.171875 17.933594 93.171875 Z M 83.277344 91.671875 C 83.121094 91.671875 82.945312 91.613281 82.808594 91.515625 C 82.476562 91.261719 82.398438 90.773438 82.671875 90.441406 L 82.730469 90.363281 C 82.984375 90.035156 83.472656 89.976562 83.800781 90.226562 C 84.132812 90.480469 84.191406 90.96875 83.9375 91.300781 L 83.878906 91.378906 C 83.742188 91.574219 83.511719 91.671875 83.277344 91.671875 Z M 15.535156 90.054688 C 15.300781 90.054688 15.046875 89.9375 14.910156 89.722656 L 14.851562 89.644531 C 14.617188 89.292969 14.695312 88.824219 15.046875 88.570312 C 15.398438 88.335938 15.867188 88.414062 16.117188 88.765625 L 16.175781 88.84375 C 16.410156 89.195312 16.332031 89.664062 15.984375 89.917969 C 15.828125 89.996094 15.671875 90.054688 15.535156 90.054688 Z M 85.539062 88.453125 C 85.402344 88.453125 85.265625 88.414062 85.128906 88.335938 C 84.777344 88.101562 84.660156 87.636719 84.894531 87.285156 L 84.953125 87.207031 C 85.1875 86.855469 85.65625 86.738281 86.007812 86.972656 C 86.355469 87.207031 86.472656 87.675781 86.238281 88.023438 L 86.179688 88.101562 C 86.046875 88.316406 85.792969 88.453125 85.539062 88.453125 Z M 13.410156 86.71875 C 13.136719 86.71875 12.882812 86.582031 12.746094 86.328125 L 12.707031 86.25 C 12.492188 85.878906 12.628906 85.410156 13 85.199219 C 13.371094 84.984375 13.835938 85.121094 14.050781 85.488281 L 14.089844 85.566406 C 14.304688 85.9375 14.167969 86.40625 13.796875 86.621094 C 13.683594 86.679688 13.546875 86.71875 13.410156 86.71875 Z M 87.507812 85.023438 C 87.390625 85.023438 87.273438 85.003906 87.15625 84.945312 C 86.785156 84.75 86.628906 84.28125 86.824219 83.910156 L 86.863281 83.832031 C 87.058594 83.460938 87.527344 83.304688 87.898438 83.5 C 88.269531 83.695312 88.425781 84.164062 88.230469 84.535156 L 88.191406 84.613281 C 88.054688 84.867188 87.78125 85.023438 87.507812 85.023438 Z M 11.632812 83.207031 C 11.339844 83.207031 11.070312 83.03125 10.933594 82.761719 L 10.894531 82.683594 C 10.71875 82.292969 10.894531 81.84375 11.28125 81.667969 C 11.671875 81.492188 12.121094 81.667969 12.296875 82.058594 L 12.335938 82.136719 C 12.511719 82.527344 12.335938 82.972656 11.945312 83.148438 C 11.847656 83.1875 11.730469 83.207031 11.632812 83.207031 Z M 89.125 81.433594 C 89.027344 81.433594 88.929688 81.414062 88.851562 81.375 C 88.464844 81.21875 88.269531 80.769531 88.425781 80.382812 L 88.464844 80.285156 C 88.617188 79.894531 89.066406 79.699219 89.457031 79.855469 C 89.847656 80.011719 90.042969 80.460938 89.886719 80.847656 L 89.847656 80.945312 C 89.710938 81.238281 89.4375 81.433594 89.125 81.433594 Z M 10.171875 79.542969 C 9.859375 79.542969 9.546875 79.347656 9.449219 79.015625 L 9.410156 78.917969 C 9.273438 78.507812 9.488281 78.082031 9.898438 77.945312 C 10.308594 77.808594 10.738281 78.023438 10.875 78.429688 L 10.914062 78.527344 C 11.050781 78.9375 10.835938 79.367188 10.445312 79.503906 C 10.347656 79.523438 10.269531 79.542969 10.171875 79.542969 Z M 90.414062 77.710938 C 90.335938 77.710938 90.277344 77.691406 90.199219 77.671875 C 89.789062 77.554688 89.554688 77.125 89.671875 76.714844 L 89.691406 76.617188 C 89.808594 76.207031 90.238281 75.972656 90.648438 76.089844 C 91.054688 76.207031 91.289062 76.636719 91.171875 77.046875 L 91.152344 77.144531 C 91.035156 77.476562 90.746094 77.710938 90.414062 77.710938 Z M 9.078125 75.738281 C 8.730469 75.738281 8.417969 75.507812 8.339844 75.15625 L 8.320312 75.058594 C 8.222656 74.648438 8.476562 74.238281 8.882812 74.140625 C 9.292969 74.042969 9.703125 74.296875 9.800781 74.707031 L 9.820312 74.804688 C 9.917969 75.214844 9.664062 75.625 9.253906 75.71875 C 9.195312 75.738281 9.136719 75.738281 9.078125 75.738281 Z M 91.328125 73.867188 C 91.289062 73.867188 91.230469 73.867188 91.171875 73.847656 C 90.765625 73.769531 90.492188 73.359375 90.570312 72.953125 L 90.589844 72.855469 C 90.667969 72.445312 91.074219 72.171875 91.484375 72.25 C 91.894531 72.328125 92.167969 72.738281 92.089844 73.148438 L 92.070312 73.246094 C 92.011719 73.613281 91.679688 73.867188 91.328125 73.867188 Z M 8.339844 71.878906 C 7.96875 71.878906 7.636719 71.605469 7.578125 71.214844 L 7.558594 71.117188 C 7.5 70.691406 7.792969 70.320312 8.222656 70.261719 C 8.652344 70.203125 9.019531 70.496094 9.078125 70.921875 L 9.097656 71.019531 C 9.15625 71.449219 8.863281 71.820312 8.457031 71.898438 C 8.417969 71.878906 8.378906 71.878906 8.339844 71.878906 Z M 91.875 69.96875 C 91.855469 69.96875 91.816406 69.96875 91.796875 69.96875 C 91.367188 69.929688 91.054688 69.558594 91.113281 69.128906 L 91.113281 69.03125 C 91.152344 68.601562 91.523438 68.292969 91.953125 68.351562 C 92.382812 68.390625 92.695312 68.757812 92.636719 69.1875 L 92.636719 69.285156 C 92.617188 69.675781 92.265625 69.96875 91.875 69.96875 Z M 7.988281 67.960938 C 7.578125 67.960938 7.246094 67.648438 7.226562 67.21875 L 7.226562 67.121094 C 7.207031 66.691406 7.539062 66.339844 7.949219 66.320312 C 8.378906 66.300781 8.730469 66.632812 8.75 67.042969 L 8.75 67.140625 C 8.769531 67.570312 8.4375 67.921875 8.027344 67.941406 C 8.007812 67.960938 7.988281 67.960938 7.988281 67.960938 Z M 92.070312 65.933594 C 91.640625 65.933594 91.269531 65.679688 91.269531 65.25 L 91.269531 65.171875 C 91.269531 65.171875 91.269531 65.152344 91.269531 65.152344 L 91.269531 65.054688 C 91.269531 64.625 91.621094 64.292969 92.050781 64.292969 C 92.480469 64.292969 92.832031 64.644531 92.832031 65.054688 L 92.832031 65.132812 C 92.832031 65.132812 92.832031 65.152344 92.832031 65.152344 L 92.832031 65.25 C 92.832031 65.679688 92.5 65.933594 92.070312 65.933594 Z M 7.96875 64 C 7.949219 64 7.949219 64 7.929688 64 C 7.5 63.980469 7.167969 63.632812 7.1875 63.203125 L 7.1875 63.105469 C 7.207031 62.675781 7.578125 62.363281 7.988281 62.382812 C 8.417969 62.402344 8.75 62.753906 8.710938 63.183594 L 8.710938 63.28125 C 8.730469 63.6875 8.378906 64 7.96875 64 Z M 91.894531 61.992188 C 91.503906 61.992188 91.171875 61.699219 91.132812 61.289062 L 91.132812 61.195312 C 91.09375 60.765625 91.40625 60.394531 91.816406 60.355469 C 92.246094 60.316406 92.617188 60.628906 92.65625 61.039062 L 92.65625 61.136719 C 92.695312 61.5625 92.382812 61.933594 91.953125 61.972656 C 91.933594 61.992188 91.914062 61.992188 91.894531 61.992188 Z M 8.339844 60.082031 C 8.300781 60.082031 8.261719 60.082031 8.242188 60.082031 C 7.8125 60.023438 7.519531 59.632812 7.578125 59.222656 L 7.597656 59.125 C 7.65625 58.699219 8.046875 58.40625 8.476562 58.484375 C 8.902344 58.542969 9.195312 58.929688 9.117188 59.359375 L 9.097656 59.457031 C 9.039062 59.808594 8.710938 60.082031 8.339844 60.082031 Z M 91.347656 58.09375 C 90.976562 58.09375 90.667969 57.839844 90.589844 57.46875 L 90.570312 57.371094 C 90.492188 56.960938 90.765625 56.550781 91.171875 56.472656 C 91.582031 56.394531 91.992188 56.667969 92.070312 57.078125 L 92.089844 57.175781 C 92.167969 57.585938 91.894531 57.996094 91.484375 58.074219 C 91.425781 58.09375 91.386719 58.09375 91.347656 58.09375 Z M 9.058594 56.203125 C 9 56.203125 8.941406 56.203125 8.882812 56.183594 C 8.476562 56.085938 8.222656 55.675781 8.320312 55.265625 L 8.339844 55.167969 C 8.4375 54.757812 8.847656 54.503906 9.253906 54.601562 C 9.664062 54.699219 9.917969 55.109375 9.820312 55.519531 L 9.800781 55.617188 C 9.722656 55.96875 9.410156 56.203125 9.058594 56.203125 Z M 90.433594 54.25 C 90.101562 54.25 89.789062 54.035156 89.691406 53.6875 L 89.671875 53.589844 C 89.554688 53.179688 89.789062 52.75 90.199219 52.632812 C 90.609375 52.515625 91.035156 52.75 91.152344 53.160156 L 91.171875 53.257812 C 91.289062 53.667969 91.054688 54.09375 90.648438 54.210938 C 90.570312 54.25 90.492188 54.25 90.433594 54.25 Z M 10.152344 52.417969 C 10.074219 52.417969 9.996094 52.398438 9.898438 52.378906 C 9.488281 52.242188 9.273438 51.8125 9.410156 51.40625 L 9.449219 51.328125 C 9.585938 50.917969 10.035156 50.703125 10.425781 50.839844 C 10.835938 50.976562 11.050781 51.40625 10.914062 51.8125 L 10.875 51.910156 C 10.777344 52.222656 10.464844 52.417969 10.152344 52.417969 Z M 89.164062 50.527344 C 88.851562 50.527344 88.558594 50.332031 88.445312 50.039062 L 88.40625 49.960938 C 88.25 49.570312 88.445312 49.125 88.832031 48.96875 C 89.222656 48.8125 89.671875 49.007812 89.828125 49.394531 L 89.867188 49.492188 C 90.023438 49.882812 89.828125 50.332031 89.4375 50.488281 C 89.339844 50.507812 89.261719 50.527344 89.164062 50.527344 Z M 11.59375 48.753906 C 11.496094 48.753906 11.378906 48.734375 11.28125 48.695312 C 10.894531 48.519531 10.71875 48.070312 10.894531 47.679688 L 10.933594 47.582031 C 11.109375 47.191406 11.554688 47.015625 11.945312 47.191406 C 12.335938 47.367188 12.511719 47.816406 12.335938 48.207031 L 12.296875 48.285156 C 12.160156 48.578125 11.886719 48.753906 11.59375 48.753906 Z M 87.546875 46.917969 C 87.273438 46.917969 87 46.761719 86.863281 46.492188 L 86.824219 46.414062 C 86.628906 46.042969 86.785156 45.574219 87.15625 45.378906 C 87.527344 45.183594 87.996094 45.339844 88.191406 45.710938 L 88.230469 45.789062 C 88.425781 46.160156 88.269531 46.628906 87.898438 46.820312 C 87.78125 46.898438 87.664062 46.917969 87.546875 46.917969 Z M 13.371094 45.222656 C 13.234375 45.222656 13.117188 45.183594 13 45.125 C 12.628906 44.910156 12.492188 44.441406 12.707031 44.074219 L 12.746094 43.996094 C 12.960938 43.625 13.429688 43.507812 13.796875 43.703125 C 14.167969 43.917969 14.285156 44.382812 14.089844 44.753906 L 14.050781 44.832031 C 13.894531 45.085938 13.644531 45.222656 13.371094 45.222656 Z M 85.597656 43.488281 C 85.34375 43.488281 85.089844 43.351562 84.953125 43.136719 L 84.914062 43.058594 C 84.679688 42.707031 84.796875 42.21875 85.148438 42.003906 C 85.5 41.773438 85.988281 41.890625 86.199219 42.238281 L 86.257812 42.316406 C 86.492188 42.667969 86.375 43.15625 86.027344 43.371094 C 85.871094 43.46875 85.734375 43.488281 85.597656 43.488281 Z M 15.476562 41.890625 C 15.320312 41.890625 15.164062 41.851562 15.046875 41.753906 C 14.695312 41.519531 14.617188 41.03125 14.851562 40.679688 L 14.910156 40.601562 C 15.144531 40.25 15.632812 40.171875 15.984375 40.40625 C 16.332031 40.660156 16.410156 41.128906 16.175781 41.480469 L 16.117188 41.558594 C 15.964844 41.773438 15.710938 41.890625 15.476562 41.890625 Z M 83.335938 40.269531 C 83.101562 40.269531 82.867188 40.171875 82.730469 39.976562 L 82.671875 39.898438 C 82.417969 39.566406 82.476562 39.082031 82.808594 38.828125 C 83.140625 38.574219 83.628906 38.632812 83.878906 38.964844 L 83.9375 39.042969 C 84.191406 39.375 84.132812 39.859375 83.800781 40.113281 C 83.667969 40.210938 83.511719 40.269531 83.335938 40.269531 Z M 17.875 38.769531 C 17.699219 38.769531 17.523438 38.710938 17.386719 38.59375 C 17.054688 38.320312 17.015625 37.832031 17.289062 37.519531 L 17.347656 37.441406 C 17.621094 37.109375 18.109375 37.089844 18.441406 37.363281 C 18.769531 37.636719 18.789062 38.125 18.519531 38.457031 L 18.460938 38.535156 C 18.324219 38.671875 18.089844 38.769531 17.875 38.769531 Z M 80.78125 37.265625 C 80.566406 37.265625 80.371094 37.1875 80.214844 37.015625 L 80.15625 36.957031 C 79.863281 36.644531 79.882812 36.15625 80.195312 35.863281 C 80.507812 35.570312 80.996094 35.589844 81.289062 35.902344 L 81.363281 35.980469 C 81.65625 36.292969 81.636719 36.78125 81.324219 37.074219 C 81.171875 37.1875 80.976562 37.265625 80.78125 37.265625 Z M 20.566406 35.882812 C 20.371094 35.882812 20.175781 35.804688 20.019531 35.648438 C 19.726562 35.335938 19.726562 34.867188 20.039062 34.558594 L 20.117188 34.480469 C 20.429688 34.1875 20.917969 34.1875 21.207031 34.5 C 21.5 34.808594 21.5 35.296875 21.1875 35.589844 L 21.128906 35.648438 C 20.953125 35.804688 20.761719 35.882812 20.566406 35.882812 Z M 77.972656 34.5 C 77.796875 34.5 77.601562 34.441406 77.464844 34.304688 L 77.40625 34.246094 C 77.09375 33.972656 77.054688 33.484375 77.347656 33.152344 C 77.621094 32.839844 78.109375 32.800781 78.441406 33.09375 L 78.519531 33.152344 C 78.832031 33.445312 78.871094 33.914062 78.578125 34.246094 C 78.382812 34.421875 78.1875 34.5 77.972656 34.5 Z M 23.507812 33.25 C 23.296875 33.25 23.0625 33.152344 22.90625 32.957031 C 22.632812 32.625 22.691406 32.140625 23.023438 31.886719 L 23.101562 31.828125 C 23.429688 31.554688 23.917969 31.613281 24.171875 31.945312 C 24.445312 32.273438 24.386719 32.761719 24.054688 33.015625 L 23.976562 33.074219 C 23.839844 33.191406 23.683594 33.25 23.507812 33.25 Z M 74.910156 32.023438 C 74.753906 32.023438 74.597656 31.984375 74.460938 31.867188 L 74.382812 31.808594 C 74.035156 31.554688 73.976562 31.085938 74.207031 30.734375 C 74.460938 30.382812 74.949219 30.324219 75.28125 30.558594 L 75.359375 30.617188 C 75.710938 30.871094 75.769531 31.359375 75.515625 31.691406 C 75.378906 31.90625 75.144531 32.023438 74.910156 32.023438 Z M 26.6875 30.910156 C 26.433594 30.910156 26.199219 30.792969 26.042969 30.558594 C 25.808594 30.207031 25.90625 29.722656 26.257812 29.488281 L 26.335938 29.429688 C 26.6875 29.195312 27.175781 29.292969 27.410156 29.644531 C 27.644531 29.992188 27.546875 30.480469 27.195312 30.714844 L 27.117188 30.773438 C 26.980469 30.871094 26.824219 30.910156 26.6875 30.910156 Z M 71.617188 29.839844 C 71.480469 29.839844 71.34375 29.800781 71.226562 29.722656 L 71.148438 29.664062 C 70.777344 29.449219 70.660156 28.980469 70.875 28.609375 C 71.089844 28.238281 71.558594 28.121094 71.925781 28.335938 L 72.003906 28.394531 C 72.375 28.609375 72.492188 29.078125 72.277344 29.449219 C 72.140625 29.703125 71.886719 29.839844 71.617188 29.839844 Z M 30.0625 28.882812 C 29.789062 28.882812 29.515625 28.726562 29.378906 28.472656 C 29.183594 28.101562 29.320312 27.632812 29.691406 27.4375 L 29.769531 27.402344 C 30.140625 27.207031 30.605469 27.34375 30.800781 27.710938 C 30.996094 28.082031 30.859375 28.550781 30.492188 28.746094 L 30.414062 28.785156 C 30.316406 28.84375 30.179688 28.882812 30.0625 28.882812 Z M 68.144531 27.964844 C 68.027344 27.964844 67.929688 27.945312 67.8125 27.886719 L 67.734375 27.847656 C 67.34375 27.671875 67.1875 27.207031 67.363281 26.816406 C 67.539062 26.425781 68.007812 26.269531 68.398438 26.445312 L 68.476562 26.484375 C 68.867188 26.660156 69.023438 27.128906 68.847656 27.515625 C 68.710938 27.808594 68.4375 27.964844 68.144531 27.964844 Z M 33.609375 27.167969 C 33.316406 27.167969 33.023438 26.992188 32.910156 26.699219 C 32.753906 26.308594 32.929688 25.859375 33.316406 25.683594 L 33.414062 25.644531 C 33.804688 25.488281 34.253906 25.664062 34.429688 26.054688 C 34.585938 26.445312 34.410156 26.894531 34.019531 27.070312 L 33.941406 27.109375 C 33.804688 27.148438 33.707031 27.167969 33.609375 27.167969 Z M 64.515625 26.425781 C 64.4375 26.425781 64.34375 26.40625 64.265625 26.386719 L 64.167969 26.347656 C 63.777344 26.210938 63.5625 25.761719 63.71875 25.351562 C 63.855469 24.964844 64.304688 24.75 64.710938 24.90625 L 64.808594 24.945312 C 65.199219 25.078125 65.414062 25.527344 65.277344 25.9375 C 65.121094 26.230469 64.828125 26.425781 64.515625 26.425781 Z M 37.316406 25.800781 C 36.984375 25.800781 36.691406 25.585938 36.574219 25.253906 C 36.4375 24.847656 36.671875 24.417969 37.082031 24.300781 L 37.179688 24.28125 C 37.589844 24.144531 38.015625 24.378906 38.132812 24.789062 C 38.269531 25.195312 38.035156 25.625 37.628906 25.742188 L 37.53125 25.761719 C 37.472656 25.800781 37.394531 25.800781 37.316406 25.800781 Z M 60.753906 25.253906 C 60.695312 25.253906 60.617188 25.253906 60.558594 25.234375 L 60.460938 25.214844 C 60.050781 25.117188 59.796875 24.691406 59.914062 24.28125 C 60.011719 23.871094 60.441406 23.617188 60.851562 23.734375 L 60.949219 23.753906 C 61.359375 23.871094 61.613281 24.28125 61.496094 24.691406 C 61.398438 25.019531 61.085938 25.253906 60.753906 25.253906 Z M 41.117188 24.808594 C 40.765625 24.808594 40.453125 24.554688 40.375 24.203125 C 40.277344 23.792969 40.550781 23.382812 40.960938 23.285156 L 41.039062 23.265625 C 41.449219 23.167969 41.878906 23.441406 41.957031 23.851562 C 42.054688 24.261719 41.78125 24.671875 41.371094 24.769531 L 41.273438 24.789062 C 41.234375 24.789062 41.175781 24.808594 41.117188 24.808594 Z M 56.894531 24.417969 C 56.855469 24.417969 56.816406 24.417969 56.777344 24.398438 L 56.679688 24.378906 C 56.269531 24.320312 55.976562 23.910156 56.035156 23.5 C 56.113281 23.089844 56.503906 22.796875 56.914062 22.855469 L 57.011719 22.875 C 57.417969 22.953125 57.710938 23.34375 57.632812 23.753906 C 57.59375 24.164062 57.261719 24.417969 56.894531 24.417969 Z M 45.019531 24.164062 C 44.628906 24.164062 44.296875 23.871094 44.257812 23.480469 C 44.199219 23.050781 44.511719 22.679688 44.941406 22.621094 L 45.039062 22.601562 C 45.464844 22.546875 45.835938 22.855469 45.894531 23.285156 C 45.953125 23.714844 45.640625 24.085938 45.210938 24.144531 L 45.113281 24.164062 C 45.074219 24.144531 45.039062 24.164062 45.019531 24.164062 Z M 52.972656 23.96875 C 52.953125 23.96875 52.933594 23.96875 52.914062 23.96875 L 52.816406 23.96875 C 52.386719 23.949219 52.078125 23.578125 52.097656 23.148438 C 52.117188 22.71875 52.484375 22.410156 52.914062 22.429688 L 53.011719 22.429688 C 53.441406 22.449219 53.753906 22.816406 53.734375 23.246094 C 53.714844 23.65625 53.382812 23.96875 52.972656 23.96875 Z M 48.9375 23.890625 C 48.527344 23.890625 48.175781 23.558594 48.175781 23.128906 C 48.15625 22.699219 48.507812 22.351562 48.917969 22.332031 L 49.015625 22.332031 C 49.425781 22.3125 49.796875 22.660156 49.796875 23.070312 C 49.816406 23.5 49.464844 23.851562 49.054688 23.871094 L 48.9375 23.890625 C 48.957031 23.890625 48.957031 23.890625 48.9375 23.890625 Z M 48.9375 23.890625 " fill-opacity="1" fill-rule="nonzero"/><path fill="#ffffff" d="M 37.546875 38.78125 C 50.980469 36.898438 52.066406 60.953125 39.636719 60.371094 C 29.644531 59.902344 25.871094 40.417969 37.546875 38.78125 " fill-opacity="1" fill-rule="evenodd"/><path fill="#ffffff" d="M 59.136719 38.78125 C 73.933594 35.550781 72.203125 61.832031 58.441406 60.371094 C 47.546875 59.210938 49.671875 40.847656 59.136719 38.78125 " fill-opacity="1" fill-rule="evenodd"/><path fill="#ffffff" d="M 32.671875 67.683594 C 27.410156 79.167969 11.378906 71.054688 13.171875 59.671875 C 15.058594 47.6875 36.5 53.796875 32.671875 67.683594 " fill-opacity="1" fill-rule="evenodd"/><g clip-path="url(#b4632f7571)"><path fill="#ffffff" d="M 76.203125 53.40625 C 79.664062 52.734375 83.988281 53.964844 85.605469 56.886719 C 90.058594 64.949219 81.847656 74.804688 73.761719 73.949219 C 69.324219 73.484375 66.757812 69.707031 66.449219 66.289062 C 65.789062 58.976562 71.011719 54.410156 76.203125 53.40625 " fill-opacity="1" fill-rule="evenodd"/></g><g clip-path="url(#f62bc8da16)"><path fill="#ffffff" d="M 46.253906 64.199219 C 58.453125 62.097656 69.65625 70.886719 67.148438 85.789062 C 66.628906 88.875 63.972656 93.238281 60.183594 93.453125 C 57.121094 93.625 53.546875 90.648438 49.734375 90.667969 C 45.007812 90.6875 41.277344 94.882812 36.851562 92.757812 C 33.132812 90.96875 31.628906 83.738281 32.324219 78.480469 C 33.324219 70.894531 38.902344 65.46875 46.253906 64.199219 " fill-opacity="1" fill-rule="evenodd"/></g><g fill="#ffde59" fill-opacity="1"><g transform="translate(94.070995, 94.336586)"><g><path d="M 21.5625 -11.46875 C 22.425781 -11.226562 23.53125 -11.0625 24.875 -10.96875 C 26.21875 -10.875 27.503906 -10.828125 28.734375 -10.828125 C 31.179688 -10.828125 33.210938 -11.332031 34.828125 -12.34375 C 36.453125 -13.351562 37.265625 -14.929688 37.265625 -17.078125 C 37.265625 -19.085938 36.585938 -20.519531 35.234375 -21.375 C 33.890625 -22.238281 31.84375 -22.671875 29.09375 -22.671875 L 21.5625 -22.671875 Z M 21.5625 -33.875 L 28.265625 -33.875 C 30.898438 -33.875 32.8125 -34.359375 34 -35.328125 C 35.195312 -36.304688 35.796875 -37.75 35.796875 -39.65625 C 35.796875 -41.300781 35.109375 -42.613281 33.734375 -43.59375 C 32.359375 -44.570312 30.289062 -45.0625 27.53125 -45.0625 C 26.613281 -45.0625 25.554688 -45.03125 24.359375 -44.96875 C 23.171875 -44.90625 22.238281 -44.816406 21.5625 -44.703125 Z M 27.53125 1.46875 C 26.488281 1.46875 25.265625 1.4375 23.859375 1.375 C 22.453125 1.3125 21 1.1875 19.5 1 C 18 0.820312 16.515625 0.59375 15.046875 0.3125 C 13.578125 0.0390625 12.234375 -0.335938 11.015625 -0.828125 C 7.648438 -2.109375 5.96875 -4.34375 5.96875 -7.53125 L 5.96875 -50.390625 C 5.96875 -51.671875 6.316406 -52.660156 7.015625 -53.359375 C 7.722656 -54.066406 8.6875 -54.632812 9.90625 -55.0625 C 11.988281 -55.800781 14.585938 -56.335938 17.703125 -56.671875 C 20.828125 -57.003906 24.039062 -57.171875 27.34375 -57.171875 C 35.175781 -57.171875 41.203125 -55.851562 45.421875 -53.21875 C 49.648438 -50.59375 51.765625 -46.53125 51.765625 -41.03125 C 51.765625 -38.269531 50.96875 -35.894531 49.375 -33.90625 C 47.78125 -31.925781 45.640625 -30.472656 42.953125 -29.546875 C 46.015625 -28.691406 48.566406 -27.132812 50.609375 -24.875 C 52.660156 -22.613281 53.6875 -19.769531 53.6875 -16.34375 C 53.6875 -10.28125 51.4375 -5.796875 46.9375 -2.890625 C 42.445312 0.015625 35.976562 1.46875 27.53125 1.46875 Z M 27.53125 1.46875 "/></g></g></g><g fill="#ffde59" fill-opacity="1"><g transform="translate(150.882096, 94.336586)"><g><path d="M 21.5625 -11.46875 C 22.425781 -11.226562 23.53125 -11.0625 24.875 -10.96875 C 26.21875 -10.875 27.503906 -10.828125 28.734375 -10.828125 C 31.179688 -10.828125 33.210938 -11.332031 34.828125 -12.34375 C 36.453125 -13.351562 37.265625 -14.929688 37.265625 -17.078125 C 37.265625 -19.085938 36.585938 -20.519531 35.234375 -21.375 C 33.890625 -22.238281 31.84375 -22.671875 29.09375 -22.671875 L 21.5625 -22.671875 Z M 21.5625 -33.875 L 28.265625 -33.875 C 30.898438 -33.875 32.8125 -34.359375 34 -35.328125 C 35.195312 -36.304688 35.796875 -37.75 35.796875 -39.65625 C 35.796875 -41.300781 35.109375 -42.613281 33.734375 -43.59375 C 32.359375 -44.570312 30.289062 -45.0625 27.53125 -45.0625 C 26.613281 -45.0625 25.554688 -45.03125 24.359375 -44.96875 C 23.171875 -44.90625 22.238281 -44.816406 21.5625 -44.703125 Z M 27.53125 1.46875 C 26.488281 1.46875 25.265625 1.4375 23.859375 1.375 C 22.453125 1.3125 21 1.1875 19.5 1 C 18 0.820312 16.515625 0.59375 15.046875 0.3125 C 13.578125 0.0390625 12.234375 -0.335938 11.015625 -0.828125 C 7.648438 -2.109375 5.96875 -4.34375 5.96875 -7.53125 L 5.96875 -50.390625 C 5.96875 -51.671875 6.316406 -52.660156 7.015625 -53.359375 C 7.722656 -54.066406 8.6875 -54.632812 9.90625 -55.0625 C 11.988281 -55.800781 14.585938 -56.335938 17.703125 -56.671875 C 20.828125 -57.003906 24.039062 -57.171875 27.34375 -57.171875 C 35.175781 -57.171875 41.203125 -55.851562 45.421875 -53.21875 C 49.648438 -50.59375 51.765625 -46.53125 51.765625 -41.03125 C 51.765625 -38.269531 50.96875 -35.894531 49.375 -33.90625 C 47.78125 -31.925781 45.640625 -30.472656 42.953125 -29.546875 C 46.015625 -28.691406 48.566406 -27.132812 50.609375 -24.875 C 52.660156 -22.613281 53.6875 -19.769531 53.6875 -16.34375 C 53.6875 -10.28125 51.4375 -5.796875 46.9375 -2.890625 C 42.445312 0.015625 35.976562 1.46875 27.53125 1.46875 Z M 27.53125 1.46875 "/></g></g></g><g fill="#ffde59" fill-opacity="1"><g transform="translate(207.693198, 94.336586)"><g><path d="M 34.328125 -44.421875 C 29.617188 -44.421875 26.007812 -42.984375 23.5 -40.109375 C 20.988281 -37.234375 19.734375 -33.164062 19.734375 -27.90625 C 19.734375 -22.582031 21.125 -18.484375 23.90625 -15.609375 C 26.6875 -12.734375 30.4375 -11.296875 35.15625 -11.296875 C 37.664062 -11.296875 39.789062 -11.628906 41.53125 -12.296875 C 43.269531 -12.972656 44.9375 -13.738281 46.53125 -14.59375 C 47.570312 -13.738281 48.382812 -12.710938 48.96875 -11.515625 C 49.550781 -10.328125 49.84375 -8.9375 49.84375 -7.34375 C 49.84375 -4.832031 48.445312 -2.703125 45.65625 -0.953125 C 42.875 0.785156 38.640625 1.65625 32.953125 1.65625 C 28.847656 1.65625 24.988281 1.078125 21.375 -0.078125 C 17.769531 -1.242188 14.617188 -3.035156 11.921875 -5.453125 C 9.234375 -7.878906 7.109375 -10.941406 5.546875 -14.640625 C 3.992188 -18.335938 3.21875 -22.757812 3.21875 -27.90625 C 3.21875 -32.675781 3.960938 -36.878906 5.453125 -40.515625 C 6.953125 -44.160156 9.003906 -47.238281 11.609375 -49.75 C 14.210938 -52.257812 17.253906 -54.15625 20.734375 -55.4375 C 24.222656 -56.71875 27.957031 -57.359375 31.9375 -57.359375 C 37.570312 -57.359375 41.929688 -56.441406 45.015625 -54.609375 C 48.109375 -52.773438 49.65625 -50.421875 49.65625 -47.546875 C 49.65625 -45.953125 49.253906 -44.570312 48.453125 -43.40625 C 47.660156 -42.25 46.742188 -41.332031 45.703125 -40.65625 C 44.117188 -41.695312 42.421875 -42.582031 40.609375 -43.3125 C 38.804688 -44.050781 36.710938 -44.421875 34.328125 -44.421875 Z M 34.328125 -44.421875 "/></g></g></g><g fill="#ffde59" fill-opacity="1"><g transform="translate(260.098915, 94.336586)"><g><path d="M 17.8125 -53.96875 C 18.84375 -54.582031 20.414062 -55.160156 22.53125 -55.703125 C 24.644531 -56.253906 26.769531 -56.53125 28.90625 -56.53125 C 31.96875 -56.53125 34.675781 -56.085938 37.03125 -55.203125 C 39.382812 -54.316406 40.898438 -52.925781 41.578125 -51.03125 C 42.679688 -47.84375 43.875 -44.140625 45.15625 -39.921875 C 46.4375 -35.703125 47.71875 -31.34375 49 -26.84375 C 50.289062 -22.34375 51.546875 -17.90625 52.765625 -13.53125 C 53.992188 -9.15625 55.066406 -5.285156 55.984375 -1.921875 C 55.253906 -1.066406 54.15625 -0.378906 52.6875 0.140625 C 51.21875 0.660156 49.472656 0.921875 47.453125 0.921875 C 45.984375 0.921875 44.742188 0.796875 43.734375 0.546875 C 42.722656 0.304688 41.894531 -0.0546875 41.25 -0.546875 C 40.613281 -1.035156 40.09375 -1.675781 39.6875 -2.46875 C 39.289062 -3.269531 38.941406 -4.191406 38.640625 -5.234375 L 36.984375 -11.5625 L 20.375 -11.5625 C 19.882812 -9.726562 19.394531 -7.832031 18.90625 -5.875 C 18.414062 -3.914062 17.925781 -2.019531 17.4375 -0.1875 C 16.582031 0.125 15.679688 0.382812 14.734375 0.59375 C 13.785156 0.8125 12.640625 0.921875 11.296875 0.921875 C 8.171875 0.921875 5.859375 0.382812 4.359375 -0.6875 C 2.859375 -1.757812 2.109375 -3.242188 2.109375 -5.140625 C 2.109375 -5.992188 2.226562 -6.847656 2.46875 -7.703125 C 2.71875 -8.566406 2.992188 -9.578125 3.296875 -10.734375 C 3.734375 -12.390625 4.332031 -14.441406 5.09375 -16.890625 C 5.851562 -19.335938 6.691406 -21.984375 7.609375 -24.828125 C 8.535156 -27.671875 9.515625 -30.59375 10.546875 -33.59375 C 11.585938 -36.59375 12.566406 -39.421875 13.484375 -42.078125 C 14.410156 -44.742188 15.253906 -47.113281 16.015625 -49.1875 C 16.773438 -51.269531 17.375 -52.863281 17.8125 -53.96875 Z M 28.8125 -42.125 C 27.957031 -39.550781 26.992188 -36.6875 25.921875 -33.53125 C 24.859375 -30.382812 23.894531 -27.191406 23.03125 -23.953125 L 34.421875 -23.953125 C 33.566406 -27.253906 32.691406 -30.476562 31.796875 -33.625 C 30.910156 -36.78125 30.101562 -39.613281 29.375 -42.125 Z M 28.8125 -42.125 "/></g></g></g><g fill="#ffde59" fill-opacity="1"><g transform="translate(317.644239, 94.336586)"><g><path d="M 3.390625 -42.765625 C 2.960938 -43.441406 2.566406 -44.359375 2.203125 -45.515625 C 1.835938 -46.679688 1.65625 -47.90625 1.65625 -49.1875 C 1.65625 -51.582031 2.1875 -53.296875 3.25 -54.328125 C 4.320312 -55.367188 5.71875 -55.890625 7.4375 -55.890625 L 47.453125 -55.890625 C 47.878906 -55.222656 48.273438 -54.304688 48.640625 -53.140625 C 49.003906 -51.972656 49.1875 -50.75 49.1875 -49.46875 C 49.1875 -47.082031 48.648438 -45.367188 47.578125 -44.328125 C 46.515625 -43.285156 45.125 -42.765625 43.40625 -42.765625 L 33.21875 -42.765625 L 33.21875 -0.359375 C 32.550781 -0.179688 31.5 -0.00390625 30.0625 0.171875 C 28.625 0.359375 27.203125 0.453125 25.796875 0.453125 C 24.378906 0.453125 23.132812 0.34375 22.0625 0.125 C 21 -0.0820312 20.097656 -0.457031 19.359375 -1 C 18.628906 -1.550781 18.078125 -2.316406 17.703125 -3.296875 C 17.335938 -4.273438 17.15625 -5.5625 17.15625 -7.15625 L 17.15625 -42.765625 Z M 3.390625 -42.765625 "/></g></g></g></svg>