<svg xmlns="http://www.w3.org/2000/svg" xmlns:xlink="http://www.w3.org/1999/xlink" width="500" zoomAndPan="magnify" viewBox="0 0 375 374.999991" height="500" preserveAspectRatio="xMidYMid meet" version="1.0"><defs><clipPath id="1fcb4254f8"><path d="M 24.367188 63 L 350.617188 63 L 350.617188 326.640625 L 24.367188 326.640625 Z M 24.367188 63 " clip-rule="nonzero"/></clipPath><clipPath id="5232e353a9"><path d="M 78.375 228.367188 L 146.652344 228.367188 L 146.652344 296.644531 L 78.375 296.644531 Z M 78.375 228.367188 " clip-rule="nonzero"/></clipPath><clipPath id="afa5f3f631"><path d="M 123.941406 254.167969 L 138.230469 254.167969 L 138.230469 268.683594 L 123.941406 268.683594 Z M 123.941406 254.167969 " clip-rule="nonzero"/></clipPath><clipPath id="42454daa07"><path d="M 100.0625 261.609375 L 124.730469 261.609375 L 124.730469 282.085938 L 100.0625 282.085938 Z M 100.0625 261.609375 " clip-rule="nonzero"/></clipPath></defs><path fill="#ffdf9f" d="M 98.40625 222.085938 C 102.921875 221.820312 107.550781 220.160156 112.15625 217.152344 C 115.921875 214.703125 117.964844 212.054688 118.230469 209.304688 C 118.449219 207.050781 117.417969 204.597656 115.476562 202.742188 C 113.878906 201.214844 111.671875 200.03125 108.734375 199.128906 C 105.828125 198.230469 102.289062 197.6875 98.617188 197.6875 C 93.257812 197.6875 87.632812 198.855469 83.3125 201.820312 C 81.667969 202.941406 80.75 204.613281 80.578125 206.777344 C 80.257812 210.78125 82.621094 215.339844 85 217.597656 C 88.332031 220.761719 93.210938 222.390625 98.398438 222.09375 Z M 98.40625 222.085938 " fill-opacity="1" fill-rule="nonzero"/><path fill="#ffdf9f" d="M 119.929688 205.921875 C 119.519531 205.449219 119.132812 204.964844 118.769531 204.464844 C 119.015625 204.9375 119.21875 205.429688 119.386719 205.921875 Z M 119.929688 205.921875 " fill-opacity="1" fill-rule="nonzero"/><path fill="#efca8b" d="M 307.890625 122.359375 C 308.085938 93.53125 300.570312 70.160156 289.683594 66.300781 C 278.90625 62.472656 264.507812 75.074219 261.066406 78.304688 C 283.007812 89.6875 298.847656 108.984375 307.886719 122.363281 Z M 307.890625 122.359375 " fill-opacity="1" fill-rule="nonzero"/><path fill="#efca8b" d="M 122.113281 205.921875 L 202.933594 205.921875 C 203.378906 205.921875 203.738281 206.28125 203.738281 206.726562 L 203.738281 220.183594 C 215.316406 220.269531 223.527344 220 223.605469 220 C 224.359375 220.019531 293.960938 222.230469 317.648438 211.117188 C 324.296875 208 328.6875 203.054688 330.6875 196.429688 C 336.621094 176.78125 320.773438 146.292969 310.796875 129.867188 C 299.960938 112.023438 269.757812 70.5 223.632812 70.5 C 177.511719 70.5 147.316406 112.015625 136.46875 129.867188 C 123.769531 150.78125 105.007812 188.464844 122.09375 205.894531 C 122.097656 205.902344 122.105469 205.914062 122.113281 205.921875 Z M 122.113281 205.921875 " fill-opacity="1" fill-rule="nonzero"/><path fill="#efca8b" d="M 186.082031 78.355469 C 182.765625 75.234375 168.253906 62.4375 157.402344 66.292969 C 146.492188 70.167969 138.964844 93.664062 139.203125 122.609375 C 148.199219 109.25 164.058594 89.820312 186.082031 78.355469 Z M 186.082031 78.355469 " fill-opacity="1" fill-rule="nonzero"/><path fill="#bfa680" d="M 202.121094 207.53125 L 119.777344 207.53125 C 119.871094 208.175781 119.898438 208.820312 119.839844 209.457031 C 119.527344 212.71875 117.238281 215.765625 113.042969 218.503906 C 108.195312 221.660156 103.308594 223.410156 98.507812 223.695312 C 98.058594 223.722656 97.621094 223.734375 97.183594 223.734375 C 92.050781 223.734375 87.269531 221.960938 83.902344 218.761719 C 81.363281 216.351562 78.960938 211.828125 78.957031 207.535156 L 26.828125 207.535156 L 26.828125 311.199219 L 202.121094 311.199219 Z M 202.121094 207.53125 " fill-opacity="1" fill-rule="nonzero"/><path fill="#efca8b" d="M 335.410156 216.527344 C 329.738281 215.699219 323.613281 217.824219 319.421875 222.085938 C 315.546875 226.027344 313.339844 231.769531 313.429688 237.554688 C 322.761719 254.6875 332.921875 279.140625 327.996094 297.84375 C 327.894531 298.21875 327.78125 298.582031 327.65625 298.941406 C 333.601562 299.480469 338.785156 294.324219 340.441406 288.839844 C 342.21875 282.945312 341.015625 276.429688 339.445312 270.269531 C 339.273438 269.578125 339.09375 268.886719 338.914062 268.199219 C 337.46875 262.636719 335.972656 256.886719 336.484375 251.058594 C 337.023438 244.957031 339.179688 242.644531 343.269531 238.769531 C 346.1875 235.996094 347.675781 233.078125 347.8125 229.855469 C 348.125 222.4375 341.652344 217.464844 335.410156 216.542969 Z M 335.410156 216.527344 " fill-opacity="1" fill-rule="nonzero"/><path fill="#efca8b" d="M 311.835938 238.238281 C 311.835938 238.238281 311.835938 238.191406 311.835938 238.171875 C 305.679688 226.824219 299.933594 218.730469 299.335938 217.886719 C 280.277344 221.203125 255.511719 221.828125 239.558594 221.828125 C 230.601562 221.828125 224.433594 221.628906 223.605469 221.601562 C 223.574219 221.601562 215.339844 221.875 203.738281 221.792969 L 203.738281 311.191406 L 224.171875 311.191406 C 231.546875 311.191406 237.585938 316.980469 238.011719 324.246094 C 246.324219 324.121094 319.894531 322.304688 326.445312 297.425781 C 331.132812 279.621094 321.332031 255.804688 312.214844 238.867188 C 312.003906 238.730469 311.847656 238.503906 311.835938 238.238281 Z M 311.835938 238.238281 " fill-opacity="1" fill-rule="nonzero"/><path fill="#a88d6a" d="M 224.164062 312.800781 L 26.855469 312.800781 C 27.273438 319.1875 32.601562 324.253906 39.089844 324.253906 L 236.40625 324.253906 C 235.988281 317.867188 230.664062 312.800781 224.171875 312.800781 Z M 224.164062 312.800781 " fill-opacity="1" fill-rule="nonzero"/><path fill="#ffffff" d="M 126.847656 259.359375 C 126.847656 260.171875 126.769531 260.976562 126.609375 261.773438 C 126.449219 262.570312 126.214844 263.34375 125.90625 264.09375 C 125.59375 264.84375 125.214844 265.558594 124.761719 266.234375 C 124.308594 266.910156 123.796875 267.53125 123.222656 268.109375 C 122.648438 268.683594 122.023438 269.195312 121.347656 269.644531 C 120.671875 270.097656 119.957031 270.476562 119.207031 270.789062 C 118.457031 271.101562 117.683594 271.335938 116.886719 271.492188 C 116.089844 271.652344 115.285156 271.730469 114.472656 271.730469 C 113.660156 271.730469 112.855469 271.652344 112.058594 271.492188 C 111.261719 271.335938 110.488281 271.101562 109.734375 270.789062 C 108.984375 270.476562 108.273438 270.097656 107.597656 269.644531 C 106.921875 269.195312 106.296875 268.683594 105.722656 268.109375 C 105.148438 267.53125 104.632812 266.910156 104.183594 266.234375 C 103.730469 265.558594 103.351562 264.84375 103.039062 264.09375 C 102.726562 263.34375 102.492188 262.570312 102.335938 261.773438 C 102.175781 260.976562 102.097656 260.171875 102.097656 259.359375 C 102.097656 258.546875 102.175781 257.746094 102.335938 256.949219 C 102.492188 256.152344 102.726562 255.378906 103.039062 254.628906 C 103.351562 253.875 103.730469 253.164062 104.183594 252.488281 C 104.632812 251.8125 105.148438 251.1875 105.722656 250.613281 C 106.296875 250.039062 106.921875 249.527344 107.597656 249.074219 C 108.273438 248.625 108.984375 248.242188 109.734375 247.933594 C 110.488281 247.621094 111.261719 247.386719 112.058594 247.230469 C 112.855469 247.070312 113.660156 246.992188 114.472656 246.992188 C 115.285156 246.992188 116.089844 247.070312 116.886719 247.230469 C 117.683594 247.386719 118.457031 247.621094 119.207031 247.933594 C 119.957031 248.242188 120.671875 248.625 121.347656 249.074219 C 122.023438 249.527344 122.648438 250.039062 123.222656 250.613281 C 123.796875 251.1875 124.308594 251.8125 124.761719 252.488281 C 125.214844 253.164062 125.59375 253.875 125.90625 254.628906 C 126.214844 255.378906 126.449219 256.152344 126.609375 256.949219 C 126.769531 257.746094 126.847656 258.546875 126.847656 259.359375 Z M 126.847656 259.359375 " fill-opacity="1" fill-rule="nonzero"/><path fill="#bfa680" d="M 310.796875 129.867188 C 302.453125 116.128906 282.644531 88.378906 252.933594 76.316406 C 245.578125 82.710938 247.898438 96.675781 259.894531 101.585938 C 263.171875 102.929688 266.902344 103.363281 269.714844 105.515625 C 278.289062 112.0625 271.925781 128.109375 280.128906 135.105469 C 286.414062 140.46875 296.234375 136.394531 304.175781 138.683594 C 307.109375 139.527344 309.894531 141.273438 312.941406 141.101562 C 314.25 141.027344 315.472656 140.578125 316.558594 139.886719 C 314.554688 136.195312 312.585938 132.808594 310.804688 129.875 Z M 310.796875 129.867188 " fill-opacity="1" fill-rule="nonzero"/><path fill="#bfa680" d="M 136.46875 129.867188 C 131.316406 138.351562 125.164062 149.597656 120.816406 161.136719 C 125.511719 162.296875 130.804688 161.261719 134.023438 157.597656 C 139.082031 151.851562 139.382812 141.679688 146.558594 138.996094 C 149.753906 137.796875 153.304688 138.621094 156.722656 138.535156 C 165.589844 138.304688 173.707031 130.917969 174.773438 122.117188 C 175.53125 115.84375 173.253906 108.765625 176.871094 103.582031 C 181.433594 97.058594 191.535156 97.378906 194.628906 89.238281 C 196.296875 84.835938 195.113281 80.550781 192.546875 77.074219 C 163.828125 89.496094 144.640625 116.414062 136.460938 129.875 Z M 136.46875 129.867188 " fill-opacity="1" fill-rule="nonzero"/><path fill="#efe0ca" d="M 326.140625 200.824219 C 315.101562 201.867188 303.019531 198.644531 296.167969 189.921875 C 292.238281 184.925781 289.480469 177.886719 283.261719 176.550781 C 280.117188 175.871094 276.816406 176.933594 273.632812 176.449219 C 264.003906 174.980469 261.21875 161.335938 252.265625 157.507812 C 246.175781 154.902344 246.300781 157.917969 239.851562 156.382812 C 236.640625 155.617188 232.570312 152.300781 229.234375 148.308594 C 225.109375 143.382812 217.714844 143.003906 213 147.371094 C 208.710938 151.339844 203.949219 154.613281 200.039062 155.160156 C 195.929688 155.730469 191.167969 155.585938 188.445312 158.710938 C 186.953125 160.410156 186.457031 162.730469 185.816406 164.902344 C 180.761719 182.144531 162.796875 194.640625 144.867188 193.390625 C 139.855469 193.039062 134.820312 191.742188 129.867188 192.574219 C 125.65625 193.277344 121.8125 195.484375 117.921875 197.007812 L 117.273438 198.445312 C 118.367188 201.195312 119.945312 203.707031 122.09375 205.894531 C 122.097656 205.902344 122.105469 205.914062 122.113281 205.921875 L 202.933594 205.921875 C 203.378906 205.921875 203.738281 206.28125 203.738281 206.726562 L 203.738281 220.183594 C 215.316406 220.269531 223.527344 220 223.605469 220 C 224.359375 220.019531 293.960938 222.230469 317.648438 211.117188 C 322.875 208.667969 326.691406 205.089844 329.066406 200.457031 C 328.09375 200.605469 327.125 200.738281 326.140625 200.828125 Z M 326.140625 200.824219 " fill-opacity="1" fill-rule="nonzero"/><path fill="#ef9a6f" d="M 291.28125 100.808594 L 291.472656 101.667969 C 291.234375 94.632812 290.796875 87.039062 286.335938 81.59375 C 285.375 80.417969 284.179688 79.347656 282.714844 78.96875 C 280.953125 78.515625 279.09375 79.132812 277.46875 79.964844 C 275.566406 80.933594 273.820312 82.191406 272.289062 83.679688 C 276.945312 87.628906 281.671875 92.679688 286.328125 96.628906 C 288.035156 98.078125 290.796875 98.628906 291.28125 100.816406 Z M 291.28125 100.808594 " fill-opacity="1" fill-rule="nonzero"/><path fill="#ef9a6f" d="M 157.4375 100.808594 L 157.242188 101.667969 C 157.480469 94.632812 157.921875 87.039062 162.382812 81.59375 C 163.339844 80.417969 164.539062 79.347656 166 78.96875 C 167.761719 78.515625 169.625 79.132812 171.246094 79.964844 C 173.148438 80.933594 174.898438 82.191406 176.425781 83.679688 C 171.773438 87.628906 167.042969 92.679688 162.390625 96.628906 C 160.679688 98.078125 157.921875 98.628906 157.4375 100.816406 Z M 157.4375 100.808594 " fill-opacity="1" fill-rule="nonzero"/><path fill="#efe0ca" d="M 234.890625 296.003906 C 252.625 287.363281 262.175781 270.335938 263.054688 251.628906 C 263.273438 246.90625 262.945312 242.074219 262.050781 237.246094 C 261.117188 232.203125 259.894531 226.683594 257.917969 221.539062 C 251.175781 221.753906 244.871094 221.828125 239.554688 221.828125 C 230.597656 221.828125 224.425781 221.628906 223.601562 221.601562 C 223.566406 221.601562 215.335938 221.875 203.730469 221.792969 L 203.730469 301.542969 C 214.269531 302.890625 225.382812 300.644531 234.890625 296.011719 Z M 234.890625 296.003906 " fill-opacity="1" fill-rule="nonzero"/><path fill="#bfa680" d="M 312.214844 238.867188 C 312 238.730469 311.847656 238.503906 311.835938 238.238281 C 311.835938 238.21875 311.835938 238.191406 311.835938 238.171875 C 305.679688 226.824219 299.933594 218.730469 299.335938 217.886719 C 295.777344 218.503906 292.019531 219.027344 288.164062 219.472656 C 286.09375 221.820312 285.535156 224.882812 287.644531 227.960938 C 290.449219 232.050781 296.300781 232.042969 299.195312 235.996094 C 302.167969 240.066406 299.746094 245.941406 296.234375 249.550781 C 294.421875 251.417969 292.132812 253.625 292.789062 256.152344 C 293.335938 258.230469 295.730469 259.28125 297.878906 259.386719 C 300.027344 259.492188 302.1875 258.957031 304.328125 259.222656 C 306.460938 259.488281 308.730469 260.96875 308.789062 263.117188 C 308.824219 264.253906 308.226562 265.375 308.425781 266.5 C 308.671875 267.875 310.082031 268.800781 311.476562 268.9375 C 312.867188 269.078125 314.242188 268.605469 315.554688 268.121094 C 318.285156 267.109375 321.011719 265.988281 323.441406 264.390625 C 320.445312 255.28125 316.265625 246.394531 312.214844 238.867188 Z M 312.214844 238.867188 " fill-opacity="1" fill-rule="nonzero"/><path fill="#bfa680" d="M 335.410156 216.527344 C 329.738281 215.699219 323.613281 217.824219 319.421875 222.085938 C 315.546875 226.027344 313.339844 231.769531 313.429688 237.554688 C 314.886719 240.226562 316.363281 243.078125 317.800781 246.054688 C 322.457031 249.265625 328.054688 251.757812 332.703125 252.832031 C 333.90625 253.113281 335.144531 253.292969 336.386719 253.378906 C 336.386719 252.601562 336.417969 251.824219 336.484375 251.039062 C 337.023438 244.9375 339.179688 242.625 343.269531 238.75 C 346.1875 235.976562 347.675781 233.058594 347.8125 229.835938 C 348.125 222.417969 341.652344 217.445312 335.410156 216.523438 Z M 335.410156 216.527344 " fill-opacity="1" fill-rule="nonzero"/><path fill="#bfa680" d="M 338.914062 268.1875 C 338.15625 265.269531 337.382812 262.292969 336.898438 259.289062 C 331.484375 259.3125 326.078125 257.632812 321.609375 254.574219 C 323.425781 258.980469 325.0625 263.542969 326.34375 268.132812 C 330.460938 269.226562 334.84375 269.335938 338.925781 268.261719 L 338.90625 268.195312 Z M 338.914062 268.1875 " fill-opacity="1" fill-rule="nonzero"/><path fill="#bfa680" d="M 326.4375 297.425781 C 326.917969 295.613281 327.238281 293.738281 327.429688 291.816406 C 327.257812 291.976562 327.082031 292.128906 326.890625 292.261719 C 324.644531 293.796875 321.519531 292.699219 319.355469 291.039062 C 317.203125 289.378906 315.375 287.164062 312.820312 286.214844 C 308.34375 284.550781 302.785156 288.289062 302.625 293.054688 C 302.558594 295.054688 303.285156 296.988281 303.597656 298.960938 C 303.910156 300.9375 303.691406 303.222656 302.167969 304.527344 C 300.65625 305.816406 298.457031 305.683594 296.476562 305.828125 C 293.429688 306.046875 290.34375 307.15625 288.289062 309.410156 C 286.234375 311.664062 285.441406 315.1875 286.867188 317.886719 C 287.078125 318.296875 287.257812 318.769531 287.425781 319.261719 C 306.042969 315.507812 323.40625 308.9375 326.4375 297.433594 Z M 326.4375 297.425781 " fill-opacity="1" fill-rule="nonzero"/><path fill="#a88d6a" d="M 34.222656 206.617188 L 34.222656 302.539062 L 203.730469 302.539062 L 203.730469 312.800781 L 26.855469 312.800781 L 26.828125 207.53125 Z M 34.222656 206.617188 " fill-opacity="1" fill-rule="nonzero"/><path fill="#93613f" d="M 186.261719 186.058594 C 194.90625 183.78125 197.960938 183.242188 197.960938 175.617188 C 197.960938 164.996094 192.726562 156.382812 186.261719 156.382812 C 179.800781 156.382812 174.566406 164.996094 174.566406 175.617188 C 174.566406 186.238281 180.019531 187.707031 186.261719 186.058594 Z M 186.261719 186.058594 " fill-opacity="1" fill-rule="nonzero"/><path fill="#93613f" d="M 259.503906 186.058594 C 265.746094 187.707031 271.199219 186.246094 271.199219 175.617188 C 271.199219 164.992188 265.964844 156.382812 259.503906 156.382812 C 253.039062 156.382812 247.804688 164.996094 247.804688 175.617188 C 247.804688 183.242188 250.859375 183.773438 259.503906 186.058594 Z M 259.503906 186.058594 " fill-opacity="1" fill-rule="nonzero"/><path fill="#93613f" d="M 287.285156 279.886719 C 284.683594 281.554688 281.699219 282.570312 278.792969 282.558594 C 275.921875 282.542969 272.96875 281.515625 270.867188 279.640625 C 269.796875 278.714844 269 277.597656 268.441406 276.304688 C 267.875 275.015625 267.582031 273.546875 267.46875 272.003906 C 267.257812 268.917969 267.769531 265.550781 268.171875 262.21875 C 269.042969 255.550781 270.394531 248.945312 271.835938 242.210938 C 268.527344 248.261719 266.285156 254.875 264.847656 261.648438 C 264.488281 263.347656 264.171875 265.039062 263.929688 266.777344 C 263.683594 268.519531 263.511719 270.320312 263.550781 272.1875 C 263.613281 274.050781 263.859375 275.996094 264.597656 277.867188 C 265.320312 279.726562 266.503906 281.496094 268 282.824219 C 270.972656 285.542969 274.910156 286.890625 278.839844 286.839844 C 282.789062 286.777344 286.453125 285.238281 289.464844 283.082031 C 292.5 280.917969 294.957031 278.046875 296.59375 274.859375 C 297.414062 273.265625 298.070312 271.609375 298.535156 269.910156 C 299.027344 268.222656 299.328125 266.484375 299.453125 264.738281 C 297.605469 267.722656 295.9375 270.632812 293.988281 273.253906 C 292.046875 275.859375 289.917969 278.230469 287.285156 279.90625 Z M 287.285156 279.886719 " fill-opacity="1" fill-rule="nonzero"/><g clip-path="url(#1fcb4254f8)"><path fill="#93613f" d="M 335.761719 214.136719 C 329.335938 213.191406 322.414062 215.585938 317.699219 220.382812 C 314.546875 223.589844 312.386719 227.863281 311.484375 232.429688 C 307.640625 225.769531 304.222656 220.664062 302.453125 218.117188 C 308.816406 216.875 314.421875 215.300781 318.679688 213.300781 C 325.980469 209.875 330.800781 204.433594 333.007812 197.121094 C 339.210938 176.574219 323.054688 145.375 312.867188 128.605469 C 312.101562 127.34375 311.238281 125.96875 310.285156 124.5 C 310.898438 93.210938 302.792969 68.375 290.503906 64.011719 C 278.28125 59.679688 263.058594 73.078125 259.394531 76.546875 C 248.816406 71.382812 236.875 68.082031 223.640625 68.082031 C 210.40625 68.082031 198.378906 71.410156 187.765625 76.609375 C 184.207031 73.230469 168.886719 59.660156 156.597656 64.019531 C 144.269531 68.394531 136.148438 93.359375 136.816406 124.769531 C 135.929688 126.140625 135.125 127.429688 134.402344 128.613281 C 123.042969 147.316406 107.050781 179.132812 115.042969 199.339844 C 113.496094 198.332031 111.652344 197.492188 109.453125 196.808594 C 101.511719 194.355469 89.929688 194.335938 81.949219 199.8125 C 80.097656 201.082031 78.902344 202.898438 78.402344 205.109375 L 26.015625 205.109375 C 25.125 205.109375 24.40625 205.835938 24.40625 206.71875 L 24.40625 311.988281 C 24.40625 320.085938 31 326.664062 39.089844 326.664062 L 237.246094 326.664062 C 240.539062 326.652344 314.875 326.09375 327.496094 301.347656 C 327.835938 301.375 328.167969 301.394531 328.5 301.394531 C 335.222656 301.394531 340.921875 295.625 342.757812 289.515625 C 344.707031 283.054688 343.441406 276.152344 341.792969 269.648438 C 341.613281 268.957031 341.433594 268.261719 341.253906 267.570312 C 339.859375 262.207031 338.421875 256.65625 338.898438 251.246094 C 339.367188 245.988281 341.085938 244.152344 344.9375 240.496094 C 348.335938 237.273438 350.070312 233.816406 350.230469 229.929688 C 350.597656 221.101562 343.050781 215.199219 335.761719 214.128906 Z M 289.417969 67.058594 C 299.492188 70.632812 306.796875 92.847656 307.082031 119.753906 C 297.9375 106.664062 282.875 89.039062 262.453125 78.125 C 266.882812 74.128906 279.757812 63.628906 289.417969 67.058594 Z M 157.675781 67.058594 C 167.378906 63.613281 180.335938 74.234375 184.707031 78.183594 C 164.207031 89.171875 149.125 106.917969 140.011719 120.011719 C 140.257812 92.984375 147.574219 70.644531 157.675781 67.0625 Z M 137.160156 130.289062 C 147.933594 112.554688 177.921875 71.304688 223.632812 71.304688 C 269.34375 71.304688 299.335938 112.554688 310.105469 130.289062 C 320.015625 146.597656 335.761719 176.847656 329.917969 196.195312 C 327.980469 202.597656 323.738281 207.371094 317.308594 210.386719 C 293.796875 221.421875 224.386719 219.214844 223.6875 219.1875 C 223.652344 219.1875 223.613281 219.1875 223.582031 219.1875 C 223.5 219.1875 215.675781 219.453125 204.542969 219.378906 L 204.542969 206.726562 C 204.542969 205.835938 203.816406 205.117188 202.933594 205.117188 L 122.472656 205.117188 C 106.125 187.980469 124.632812 150.917969 137.160156 130.289062 Z M 83.777344 202.476562 C 87.953125 199.613281 93.414062 198.484375 98.613281 198.484375 C 102.195312 198.484375 105.667969 199.023438 108.507812 199.898438 C 111.320312 200.769531 113.421875 201.894531 114.929688 203.328125 C 116.691406 205.011719 117.628906 207.21875 117.4375 209.230469 C 117.199219 211.730469 115.277344 214.167969 111.726562 216.484375 C 107.238281 219.40625 102.742188 221.027344 98.367188 221.289062 C 93.40625 221.585938 88.746094 220.027344 85.574219 217.015625 C 83.332031 214.882812 81.105469 210.59375 81.402344 206.84375 C 81.554688 204.929688 82.355469 203.46875 83.789062 202.484375 Z M 27.632812 208.332031 L 78.171875 208.332031 C 78.449219 212.609375 80.832031 216.953125 83.34375 219.339844 C 86.863281 222.675781 91.84375 224.539062 97.183594 224.539062 C 97.636719 224.539062 98.09375 224.523438 98.550781 224.5 C 103.492188 224.207031 108.519531 222.417969 113.488281 219.175781 C 117.898438 216.296875 120.308594 213.054688 120.648438 209.53125 C 120.691406 209.132812 120.695312 208.734375 120.675781 208.332031 L 201.324219 208.332031 L 201.324219 310.386719 L 27.632812 310.386719 Z M 39.089844 323.449219 C 33.320312 323.449219 28.53125 319.160156 27.746094 313.605469 L 224.164062 313.605469 C 229.9375 313.605469 234.726562 317.890625 235.511719 323.449219 Z M 257.914062 322.4375 C 256.175781 321.972656 254.640625 321.277344 253.628906 320.21875 C 252.613281 319.121094 251.988281 317.632812 251.683594 315.839844 C 251.515625 314.949219 251.394531 314.015625 251.324219 313.046875 C 251.242188 312.035156 251.15625 310.984375 251.0625 310.007812 C 250.878906 308.027344 250.832031 306.152344 251.0625 304.425781 C 251.285156 302.738281 251.96875 301.082031 252.925781 299.613281 C 253.875 298.144531 255.121094 296.867188 256.609375 295.976562 C 259.496094 294.183594 263.777344 294.011719 267.136719 296.515625 C 266.164062 294.640625 264.210938 293.210938 262.035156 292.601562 C 260.945312 292.269531 259.78125 292.144531 258.609375 292.210938 C 257.441406 292.253906 256.25 292.535156 255.152344 292.972656 C 252.945312 293.863281 251.050781 295.414062 249.648438 297.289062 C 248.257812 299.15625 247.242188 301.347656 246.792969 303.703125 C 246.347656 306.027344 246.480469 308.273438 246.621094 310.367188 C 246.695312 311.425781 246.808594 312.414062 246.90625 313.445312 C 247.007812 314.515625 247.167969 315.617188 247.40625 316.730469 C 247.652344 317.839844 248.03125 318.988281 248.589844 320.097656 C 249.101562 321.136719 249.828125 322.121094 250.71875 322.9375 C 245.160156 323.269531 240.882812 323.382812 238.742188 323.429688 C 237.925781 316.105469 231.699219 310.386719 224.152344 310.386719 L 204.523438 310.386719 L 204.523438 222.605469 C 215.222656 222.671875 222.894531 222.429688 223.613281 222.410156 C 224.625 222.445312 230.710938 222.636719 239.472656 222.636719 C 255.300781 222.636719 279.84375 222.019531 298.941406 218.761719 C 300.277344 220.664062 305.476562 228.207031 311.03125 238.410156 C 311.085938 238.816406 311.285156 239.167969 311.578125 239.421875 C 320.601562 256.21875 330.25 279.71875 325.640625 297.226562 C 321.070312 314.574219 282.570312 320.453125 257.894531 322.4375 Z M 342.71875 238.171875 C 338.601562 242.074219 336.246094 244.59375 335.6875 250.972656 C 335.164062 256.941406 336.671875 262.765625 338.136719 268.394531 C 338.316406 269.085938 338.496094 269.769531 338.667969 270.460938 C 340.203125 276.507812 341.386719 282.890625 339.671875 288.605469 C 338.242188 293.347656 333.800781 298 328.738281 298.171875 C 328.753906 298.132812 328.765625 298.089844 328.773438 298.050781 C 333.738281 279.179688 323.59375 254.609375 314.230469 237.355469 C 314.191406 231.84375 316.3125 226.398438 319.996094 222.652344 C 324.003906 218.570312 329.863281 216.527344 335.289062 217.328125 C 341.1875 218.191406 347.296875 222.863281 347.007812 229.808594 C 346.878906 232.820312 345.476562 235.550781 342.71875 238.171875 Z M 342.71875 238.171875 " fill-opacity="1" fill-rule="nonzero"/></g><path fill="#93613f" d="M 286.101562 180.484375 L 313.683594 171.429688 C 313.777344 171.398438 313.835938 171.304688 313.8125 171.203125 C 313.785156 171.097656 313.683594 171.03125 313.578125 171.058594 L 285.242188 177.375 C 285.191406 177.386719 285.144531 177.398438 285.089844 177.414062 C 284.246094 177.691406 283.78125 178.601562 284.058594 179.445312 C 284.339844 180.292969 285.25 180.757812 286.09375 180.476562 Z M 286.101562 180.484375 " fill-opacity="1" fill-rule="nonzero"/><path fill="#93613f" d="M 306.410156 185.289062 L 288.289062 186.558594 C 288.222656 186.558594 288.144531 186.574219 288.070312 186.59375 C 287.199219 186.773438 286.632812 187.628906 286.820312 188.507812 C 287 189.378906 287.855469 189.941406 288.734375 189.757812 L 306.515625 186.035156 C 306.695312 185.992188 306.828125 185.828125 306.816406 185.640625 C 306.800781 185.4375 306.621094 185.277344 306.417969 185.296875 Z M 306.410156 185.289062 " fill-opacity="1" fill-rule="nonzero"/><path fill="#93613f" d="M 298.535156 198.210938 L 288.835938 195.027344 C 288.722656 194.988281 288.589844 194.960938 288.460938 194.953125 C 287.570312 194.878906 286.785156 195.546875 286.714844 196.4375 C 286.640625 197.328125 287.304688 198.109375 288.195312 198.183594 L 298.371094 199.023438 C 298.554688 199.035156 298.742188 198.921875 298.800781 198.734375 C 298.875 198.515625 298.753906 198.285156 298.535156 198.210938 Z M 298.535156 198.210938 " fill-opacity="1" fill-rule="nonzero"/><path fill="#93613f" d="M 131.902344 172.097656 L 159.664062 180.492188 C 159.664062 180.492188 159.714844 180.503906 159.742188 180.511719 C 160.609375 180.722656 161.484375 180.199219 161.699219 179.335938 C 161.910156 178.46875 161.386719 177.59375 160.519531 177.378906 L 132.367188 170.40625 C 131.914062 170.292969 131.449219 170.554688 131.316406 171.003906 C 131.175781 171.472656 131.433594 171.957031 131.902344 172.097656 Z M 131.902344 172.097656 " fill-opacity="1" fill-rule="nonzero"/><path fill="#93613f" d="M 157.164062 189.769531 C 158.046875 189.855469 158.839844 189.203125 158.925781 188.320312 C 159.011719 187.4375 158.359375 186.644531 157.476562 186.558594 L 139.421875 184.824219 C 138.988281 184.785156 138.582031 185.082031 138.503906 185.515625 C 138.417969 185.972656 138.722656 186.417969 139.183594 186.5 L 157.023438 189.75 C 157.070312 189.757812 157.117188 189.761719 157.15625 189.769531 Z M 157.164062 189.769531 " fill-opacity="1" fill-rule="nonzero"/><path fill="#93613f" d="M 156.921875 195.027344 L 147.269531 198.429688 C 147.1875 198.457031 147.136719 198.535156 147.140625 198.621094 C 147.140625 198.730469 147.242188 198.808594 147.347656 198.800781 L 157.570312 198.183594 C 157.714844 198.175781 157.867188 198.144531 158.015625 198.097656 C 158.867188 197.796875 159.304688 196.867188 159.011719 196.023438 C 158.710938 195.171875 157.78125 194.734375 156.9375 195.027344 Z M 156.921875 195.027344 " fill-opacity="1" fill-rule="nonzero"/><path fill="#93613f" d="M 215.800781 185.570312 C 218.585938 185.480469 221.339844 184.398438 223.515625 182.523438 C 224.433594 183.277344 225.441406 183.878906 226.492188 184.320312 C 228.074219 184.976562 229.75 185.316406 231.425781 185.324219 C 234.804688 185.328125 238.015625 183.839844 240.125 181.441406 C 240.246094 181.300781 240.25 181.089844 240.125 180.949219 C 239.992188 180.796875 239.753906 180.777344 239.601562 180.914062 C 237.359375 182.863281 234.3125 183.726562 231.554688 183.34375 C 229.191406 183.015625 226.957031 181.867188 225.476562 180.226562 C 228.1875 179.574219 230.175781 177.480469 230.175781 174.992188 C 230.175781 171.988281 227.265625 174.023438 223.679688 174.023438 C 220.097656 174.023438 217.183594 171.988281 217.183594 174.992188 C 217.183594 177.378906 219.027344 179.40625 221.578125 180.136719 C 220.101562 181.828125 217.949219 183.035156 215.628906 183.363281 C 212.941406 183.746094 209.996094 182.964844 207.78125 181.15625 C 207.546875 180.96875 207.210938 180.976562 206.988281 181.1875 C 206.757812 181.414062 206.75 181.792969 206.984375 182.027344 C 209.222656 184.304688 212.460938 185.648438 215.808594 185.554688 Z M 215.800781 185.570312 " fill-opacity="1" fill-rule="nonzero"/><path fill="#ffffff" d="M 259.507812 168.253906 C 259.507812 168.519531 259.484375 168.78125 259.429688 169.042969 C 259.378906 169.300781 259.304688 169.554688 259.203125 169.800781 C 259.101562 170.046875 258.976562 170.277344 258.828125 170.5 C 258.679688 170.71875 258.511719 170.925781 258.324219 171.113281 C 258.136719 171.300781 257.933594 171.464844 257.710938 171.613281 C 257.492188 171.761719 257.257812 171.886719 257.011719 171.988281 C 256.769531 172.089844 256.515625 172.164062 256.253906 172.21875 C 255.996094 172.269531 255.730469 172.296875 255.464844 172.296875 C 255.199219 172.296875 254.9375 172.269531 254.675781 172.21875 C 254.417969 172.164062 254.164062 172.089844 253.917969 171.988281 C 253.671875 171.886719 253.441406 171.761719 253.21875 171.613281 C 253 171.464844 252.792969 171.300781 252.605469 171.113281 C 252.417969 170.925781 252.25 170.71875 252.105469 170.5 C 251.957031 170.277344 251.832031 170.046875 251.730469 169.800781 C 251.628906 169.554688 251.550781 169.300781 251.5 169.042969 C 251.449219 168.78125 251.421875 168.519531 251.421875 168.253906 C 251.421875 167.988281 251.449219 167.726562 251.5 167.464844 C 251.550781 167.207031 251.628906 166.953125 251.730469 166.707031 C 251.832031 166.460938 251.957031 166.230469 252.105469 166.007812 C 252.25 165.789062 252.417969 165.582031 252.605469 165.394531 C 252.792969 165.207031 253 165.042969 253.21875 164.894531 C 253.441406 164.746094 253.671875 164.621094 253.917969 164.519531 C 254.164062 164.417969 254.417969 164.34375 254.675781 164.289062 C 254.9375 164.238281 255.199219 164.210938 255.464844 164.210938 C 255.730469 164.210938 255.996094 164.238281 256.253906 164.289062 C 256.515625 164.34375 256.769531 164.417969 257.011719 164.519531 C 257.257812 164.621094 257.492188 164.746094 257.710938 164.894531 C 257.933594 165.042969 258.136719 165.207031 258.324219 165.394531 C 258.511719 165.582031 258.679688 165.789062 258.828125 166.007812 C 258.976562 166.230469 259.101562 166.460938 259.203125 166.707031 C 259.304688 166.953125 259.378906 167.207031 259.429688 167.464844 C 259.484375 167.726562 259.507812 167.988281 259.507812 168.253906 Z M 259.507812 168.253906 " fill-opacity="1" fill-rule="nonzero"/><path fill="#ffffff" d="M 194.339844 168.253906 C 194.339844 168.519531 194.316406 168.78125 194.265625 169.042969 C 194.210938 169.300781 194.136719 169.554688 194.035156 169.800781 C 193.933594 170.046875 193.808594 170.277344 193.660156 170.5 C 193.511719 170.71875 193.34375 170.925781 193.15625 171.113281 C 192.96875 171.300781 192.765625 171.464844 192.546875 171.613281 C 192.324219 171.761719 192.089844 171.886719 191.847656 171.988281 C 191.601562 172.089844 191.347656 172.164062 191.085938 172.21875 C 190.828125 172.269531 190.5625 172.296875 190.296875 172.296875 C 190.035156 172.296875 189.769531 172.269531 189.511719 172.21875 C 189.25 172.164062 188.996094 172.089844 188.75 171.988281 C 188.507812 171.886719 188.273438 171.761719 188.050781 171.613281 C 187.832031 171.464844 187.628906 171.300781 187.441406 171.113281 C 187.253906 170.925781 187.085938 170.71875 186.9375 170.5 C 186.789062 170.277344 186.664062 170.046875 186.5625 169.800781 C 186.460938 169.554688 186.386719 169.300781 186.332031 169.042969 C 186.28125 168.78125 186.253906 168.519531 186.253906 168.253906 C 186.253906 167.988281 186.28125 167.726562 186.332031 167.464844 C 186.386719 167.207031 186.460938 166.953125 186.5625 166.707031 C 186.664062 166.460938 186.789062 166.230469 186.9375 166.007812 C 187.085938 165.789062 187.253906 165.582031 187.441406 165.394531 C 187.628906 165.207031 187.832031 165.042969 188.050781 164.894531 C 188.273438 164.746094 188.507812 164.621094 188.75 164.519531 C 188.996094 164.417969 189.25 164.34375 189.511719 164.289062 C 189.769531 164.238281 190.035156 164.210938 190.296875 164.210938 C 190.5625 164.210938 190.828125 164.238281 191.085938 164.289062 C 191.347656 164.34375 191.601562 164.417969 191.847656 164.519531 C 192.089844 164.621094 192.324219 164.746094 192.546875 164.894531 C 192.765625 165.042969 192.96875 165.207031 193.15625 165.394531 C 193.34375 165.582031 193.511719 165.789062 193.660156 166.007812 C 193.808594 166.230469 193.933594 166.460938 194.035156 166.707031 C 194.136719 166.953125 194.210938 167.207031 194.265625 167.464844 C 194.316406 167.726562 194.339844 167.988281 194.339844 168.253906 Z M 194.339844 168.253906 " fill-opacity="1" fill-rule="nonzero"/><g clip-path="url(#5232e353a9)"><path fill="#ffde59" d="M 146.773438 262.566406 C 146.773438 263.6875 146.71875 264.804688 146.609375 265.917969 C 146.5 267.035156 146.335938 268.140625 146.117188 269.238281 C 145.898438 270.335938 145.625 271.421875 145.300781 272.496094 C 144.976562 273.566406 144.597656 274.621094 144.171875 275.65625 C 143.742188 276.691406 143.261719 277.699219 142.734375 278.6875 C 142.207031 279.675781 141.632812 280.636719 141.011719 281.566406 C 140.386719 282.5 139.722656 283.398438 139.011719 284.261719 C 138.300781 285.128906 137.550781 285.957031 136.757812 286.75 C 135.964844 287.542969 135.136719 288.292969 134.269531 289.003906 C 133.402344 289.714844 132.503906 290.382812 131.574219 291.003906 C 130.644531 291.625 129.683594 292.199219 128.695312 292.730469 C 127.707031 293.257812 126.695312 293.734375 125.660156 294.164062 C 124.625 294.59375 123.574219 294.96875 122.5 295.292969 C 121.429688 295.621094 120.34375 295.890625 119.246094 296.109375 C 118.148438 296.328125 117.039062 296.492188 115.925781 296.601562 C 114.8125 296.710938 113.695312 296.765625 112.574219 296.765625 C 111.453125 296.765625 110.335938 296.710938 109.222656 296.601562 C 108.105469 296.492188 107 296.328125 105.902344 296.109375 C 104.804688 295.890625 103.71875 295.621094 102.644531 295.292969 C 101.574219 294.96875 100.519531 294.59375 99.484375 294.164062 C 98.449219 293.734375 97.441406 293.257812 96.453125 292.730469 C 95.464844 292.199219 94.503906 291.625 93.574219 291.003906 C 92.640625 290.382812 91.742188 289.714844 90.878906 289.003906 C 90.011719 288.292969 89.183594 287.542969 88.390625 286.75 C 87.597656 285.957031 86.847656 285.128906 86.136719 284.261719 C 85.425781 283.398438 84.757812 282.5 84.136719 281.566406 C 83.515625 280.636719 82.941406 279.675781 82.410156 278.6875 C 81.882812 277.699219 81.40625 276.691406 80.976562 275.65625 C 80.546875 274.621094 80.171875 273.566406 79.847656 272.496094 C 79.519531 271.421875 79.25 270.335938 79.03125 269.238281 C 78.8125 268.140625 78.648438 267.035156 78.539062 265.917969 C 78.429688 264.804688 78.375 263.6875 78.375 262.566406 C 78.375 261.445312 78.429688 260.328125 78.539062 259.214844 C 78.648438 258.101562 78.8125 256.992188 79.03125 255.894531 C 79.25 254.796875 79.519531 253.710938 79.847656 252.640625 C 80.171875 251.566406 80.546875 250.515625 80.976562 249.480469 C 81.40625 248.445312 81.882812 247.433594 82.410156 246.445312 C 82.941406 245.457031 83.515625 244.496094 84.136719 243.566406 C 84.757812 242.636719 85.425781 241.738281 86.136719 240.871094 C 86.847656 240.003906 87.597656 239.175781 88.390625 238.382812 C 89.183594 237.59375 90.011719 236.839844 90.878906 236.128906 C 91.742188 235.417969 92.640625 234.753906 93.574219 234.128906 C 94.503906 233.507812 95.464844 232.933594 96.453125 232.40625 C 97.441406 231.878906 98.449219 231.398438 99.484375 230.96875 C 100.519531 230.542969 101.574219 230.164062 102.644531 229.839844 C 103.71875 229.515625 104.804688 229.242188 105.902344 229.023438 C 107 228.804688 108.105469 228.640625 109.222656 228.53125 C 110.335938 228.421875 111.453125 228.367188 112.574219 228.367188 C 113.695312 228.367188 114.8125 228.421875 115.925781 228.53125 C 117.039062 228.640625 118.148438 228.804688 119.246094 229.023438 C 120.34375 229.242188 121.429688 229.515625 122.5 229.839844 C 123.574219 230.164062 124.625 230.542969 125.660156 230.96875 C 126.695312 231.398438 127.707031 231.878906 128.695312 232.40625 C 129.683594 232.933594 130.644531 233.507812 131.574219 234.128906 C 132.503906 234.753906 133.402344 235.417969 134.269531 236.128906 C 135.136719 236.839844 135.964844 237.59375 136.757812 238.382812 C 137.550781 239.175781 138.300781 240.003906 139.011719 240.871094 C 139.722656 241.738281 140.386719 242.636719 141.011719 243.566406 C 141.632812 244.496094 142.207031 245.457031 142.734375 246.445312 C 143.261719 247.433594 143.742188 248.445312 144.171875 249.480469 C 144.597656 250.515625 144.976562 251.566406 145.300781 252.640625 C 145.625 253.710938 145.898438 254.796875 146.117188 255.894531 C 146.335938 256.992188 146.5 258.101562 146.609375 259.214844 C 146.71875 260.328125 146.773438 261.445312 146.773438 262.566406 Z M 146.773438 262.566406 " fill-opacity="1" fill-rule="nonzero"/><path fill="#ffffff" d="M 112.519531 296.644531 C 103.40625 296.644531 94.820312 293.097656 88.371094 286.648438 C 81.925781 280.199219 78.375 271.628906 78.375 262.511719 C 78.375 253.398438 81.925781 244.8125 88.371094 238.367188 C 94.820312 231.917969 103.390625 228.367188 112.519531 228.367188 C 121.648438 228.367188 130.207031 231.917969 136.652344 238.367188 C 143.101562 244.8125 146.652344 253.386719 146.652344 262.511719 C 146.652344 271.640625 143.101562 280.199219 136.652344 286.648438 C 130.207031 293.097656 121.636719 296.644531 112.519531 296.644531 Z M 112.519531 230.40625 C 103.949219 230.40625 95.882812 233.742188 89.816406 239.808594 C 83.746094 245.875 80.414062 253.929688 80.414062 262.511719 C 80.414062 271.097656 83.746094 279.152344 89.816406 285.21875 C 95.882812 291.285156 103.9375 294.621094 112.519531 294.621094 C 121.105469 294.621094 129.15625 291.285156 135.226562 285.21875 C 141.292969 279.152344 144.625 271.097656 144.625 262.511719 C 144.625 253.929688 141.292969 245.875 135.226562 239.808594 C 129.144531 233.742188 121.089844 230.40625 112.519531 230.40625 Z M 112.519531 230.40625 " fill-opacity="1" fill-rule="nonzero"/></g><path fill="#ffffff" d="M 111.839844 292.386719 L 111.757812 292.386719 C 111.460938 292.375 111.226562 292.128906 111.242188 291.84375 C 111.253906 291.558594 111.484375 291.328125 111.773438 291.328125 C 111.773438 291.328125 111.785156 291.328125 111.785156 291.328125 L 111.855469 291.328125 C 112.152344 291.339844 112.382812 291.585938 112.371094 291.871094 C 112.371094 292.15625 112.140625 292.386719 111.839844 292.386719 Z M 114.535156 292.320312 C 114.246094 292.320312 114.015625 292.101562 114.003906 291.816406 C 113.988281 291.519531 114.207031 291.273438 114.507812 291.246094 L 114.5625 291.246094 C 114.859375 291.21875 115.117188 291.449219 115.132812 291.734375 C 115.160156 292.035156 114.929688 292.292969 114.640625 292.308594 L 114.574219 292.308594 C 114.546875 292.320312 114.535156 292.320312 114.535156 292.320312 Z M 109.105469 292.199219 C 109.09375 292.199219 109.066406 292.199219 109.039062 292.199219 L 108.96875 292.183594 C 108.671875 292.144531 108.464844 291.886719 108.507812 291.585938 C 108.546875 291.285156 108.804688 291.082031 109.105469 291.125 L 109.171875 291.136719 C 109.472656 291.164062 109.675781 291.4375 109.648438 291.734375 C 109.59375 291.992188 109.363281 292.199219 109.105469 292.199219 Z M 117.253906 292.007812 C 116.996094 292.007812 116.765625 291.816406 116.722656 291.558594 C 116.667969 291.273438 116.875 290.988281 117.171875 290.945312 L 117.242188 290.933594 C 117.527344 290.890625 117.8125 291.082031 117.851562 291.382812 C 117.894531 291.679688 117.703125 291.953125 117.402344 291.992188 L 117.335938 292.007812 C 117.324219 292.007812 117.296875 292.007812 117.253906 292.007812 Z M 106.382812 291.75 C 106.34375 291.75 106.316406 291.75 106.277344 291.734375 L 106.207031 291.722656 C 105.921875 291.652344 105.730469 291.367188 105.800781 291.082031 C 105.867188 290.796875 106.152344 290.605469 106.4375 290.675781 L 106.507812 290.6875 C 106.792969 290.753906 106.984375 291.027344 106.914062 291.328125 C 106.859375 291.585938 106.628906 291.75 106.382812 291.75 Z M 119.949219 291.449219 C 119.703125 291.449219 119.484375 291.285156 119.429688 291.042969 C 119.363281 290.753906 119.527344 290.457031 119.824219 290.386719 L 119.878906 290.375 C 120.164062 290.292969 120.464844 290.46875 120.53125 290.753906 C 120.613281 291.042969 120.4375 291.339844 120.152344 291.410156 L 120.085938 291.421875 C 120.042969 291.4375 119.988281 291.449219 119.949219 291.449219 Z M 103.730469 291.054688 C 103.675781 291.054688 103.621094 291.042969 103.570312 291.027344 L 103.515625 291.015625 C 103.226562 290.917969 103.066406 290.621094 103.160156 290.335938 C 103.253906 290.046875 103.542969 289.898438 103.828125 289.980469 L 103.894531 289.992188 C 104.179688 290.074219 104.332031 290.386719 104.25 290.660156 C 104.167969 290.90625 103.949219 291.054688 103.730469 291.054688 Z M 122.574219 290.621094 C 122.355469 290.621094 122.152344 290.484375 122.070312 290.265625 C 121.976562 289.992188 122.109375 289.679688 122.398438 289.585938 L 122.453125 289.558594 C 122.722656 289.464844 123.035156 289.597656 123.144531 289.871094 C 123.242188 290.144531 123.105469 290.457031 122.832031 290.566406 L 122.765625 290.59375 C 122.695312 290.621094 122.640625 290.621094 122.574219 290.621094 Z M 101.148438 290.117188 C 101.078125 290.117188 101.011719 290.101562 100.941406 290.074219 L 100.875 290.046875 C 100.601562 289.925781 100.480469 289.613281 100.589844 289.339844 C 100.710938 289.070312 101.023438 288.945312 101.296875 289.054688 L 101.351562 289.082031 C 101.625 289.191406 101.757812 289.503906 101.636719 289.789062 C 101.554688 289.980469 101.351562 290.117188 101.148438 290.117188 Z M 125.117188 289.558594 C 124.914062 289.558594 124.722656 289.449219 124.640625 289.257812 C 124.519531 288.988281 124.628906 288.675781 124.886719 288.539062 L 124.953125 288.511719 C 125.226562 288.386719 125.539062 288.496094 125.675781 288.769531 C 125.796875 289.042969 125.6875 289.355469 125.417969 289.476562 L 125.363281 289.503906 C 125.265625 289.546875 125.1875 289.558594 125.117188 289.558594 Z M 98.65625 288.917969 C 98.574219 288.917969 98.480469 288.890625 98.398438 288.851562 L 98.34375 288.824219 C 98.085938 288.6875 97.992188 288.363281 98.125 288.101562 C 98.261719 287.84375 98.589844 287.75 98.847656 287.886719 L 98.902344 287.914062 C 99.160156 288.046875 99.257812 288.375 99.121094 288.632812 C 99.039062 288.824219 98.847656 288.917969 98.65625 288.917969 Z M 127.539062 288.265625 C 127.363281 288.265625 127.183594 288.171875 127.078125 288.007812 C 126.925781 287.75 127.007812 287.421875 127.253906 287.273438 L 127.308594 287.230469 C 127.566406 287.082031 127.894531 287.164062 128.042969 287.421875 C 128.191406 287.679688 128.109375 288.007812 127.851562 288.15625 L 127.796875 288.183594 C 127.730469 288.238281 127.632812 288.265625 127.539062 288.265625 Z M 96.289062 287.503906 C 96.195312 287.503906 96.085938 287.476562 95.992188 287.410156 L 95.9375 287.367188 C 95.691406 287.207031 95.625 286.878906 95.785156 286.621094 C 95.949219 286.375 96.277344 286.308594 96.535156 286.46875 L 96.589844 286.511719 C 96.835938 286.675781 96.902344 287 96.738281 287.257812 C 96.644531 287.421875 96.46875 287.503906 96.289062 287.503906 Z M 129.839844 286.742188 C 129.675781 286.742188 129.511719 286.660156 129.402344 286.523438 C 129.226562 286.292969 129.28125 285.953125 129.511719 285.777344 L 129.566406 285.734375 C 129.8125 285.558594 130.136719 285.613281 130.316406 285.84375 C 130.492188 286.089844 130.4375 286.417969 130.207031 286.59375 L 130.152344 286.632812 C 130.054688 286.714844 129.945312 286.742188 129.839844 286.742188 Z M 94.074219 285.886719 C 93.949219 285.886719 93.828125 285.84375 93.734375 285.761719 L 93.679688 285.722656 C 93.445312 285.53125 93.40625 285.207031 93.597656 284.972656 C 93.789062 284.742188 94.113281 284.703125 94.34375 284.890625 L 94.398438 284.933594 C 94.628906 285.125 94.65625 285.464844 94.480469 285.679688 C 94.386719 285.816406 94.234375 285.886719 94.074219 285.886719 Z M 131.972656 285.015625 C 131.824219 285.015625 131.675781 284.960938 131.578125 284.839844 C 131.390625 284.621094 131.402344 284.28125 131.621094 284.089844 L 131.675781 284.050781 C 131.894531 283.84375 132.234375 283.871094 132.4375 284.089844 C 132.640625 284.308594 132.613281 284.648438 132.394531 284.851562 L 132.355469 284.890625 C 132.234375 284.972656 132.097656 285.015625 131.972656 285.015625 Z M 92.019531 284.050781 C 91.882812 284.050781 91.746094 283.996094 91.652344 283.898438 L 91.597656 283.84375 C 91.378906 283.640625 91.378906 283.300781 91.597656 283.082031 C 91.800781 282.867188 92.140625 282.867188 92.359375 283.082031 L 92.398438 283.125 C 92.617188 283.328125 92.617188 283.667969 92.414062 283.886719 C 92.304688 284.007812 92.15625 284.050781 92.019531 284.050781 Z M 133.945312 283.097656 C 133.8125 283.097656 133.6875 283.054688 133.578125 282.945312 C 133.363281 282.742188 133.347656 282.402344 133.550781 282.183594 L 133.59375 282.128906 C 133.796875 281.914062 134.136719 281.898438 134.355469 282.101562 C 134.574219 282.308594 134.585938 282.648438 134.382812 282.867188 L 134.339844 282.90625 C 134.234375 283.042969 134.082031 283.097656 133.945312 283.097656 Z M 90.140625 282.050781 C 89.992188 282.050781 89.84375 281.980469 89.734375 281.859375 L 89.691406 281.804688 C 89.5 281.574219 89.527344 281.246094 89.761719 281.042969 C 89.992188 280.851562 90.316406 280.878906 90.523438 281.109375 L 90.5625 281.164062 C 90.753906 281.394531 90.726562 281.722656 90.496094 281.925781 C 90.386719 282.007812 90.265625 282.050781 90.140625 282.050781 Z M 135.730469 281 C 135.621094 281 135.496094 280.960938 135.402344 280.894531 C 135.171875 280.714844 135.117188 280.375 135.308594 280.144531 L 135.347656 280.089844 C 135.523438 279.859375 135.863281 279.816406 136.097656 279.996094 C 136.328125 280.171875 136.367188 280.511719 136.191406 280.742188 L 136.152344 280.796875 C 136.054688 280.933594 135.890625 281 135.730469 281 Z M 88.46875 279.871094 C 88.304688 279.871094 88.128906 279.789062 88.03125 279.640625 L 87.992188 279.585938 C 87.828125 279.34375 87.882812 279.015625 88.128906 278.839844 C 88.371094 278.675781 88.699219 278.730469 88.875 278.972656 L 88.917969 279.027344 C 89.082031 279.273438 89.027344 279.601562 88.78125 279.777344 C 88.671875 279.832031 88.5625 279.871094 88.46875 279.871094 Z M 137.308594 278.757812 C 137.210938 278.757812 137.117188 278.730469 137.019531 278.675781 C 136.777344 278.511719 136.695312 278.183594 136.859375 277.941406 L 136.898438 277.886719 C 137.0625 277.640625 137.390625 277.558594 137.632812 277.722656 C 137.878906 277.886719 137.960938 278.210938 137.796875 278.457031 L 137.757812 278.511719 C 137.660156 278.660156 137.484375 278.757812 137.308594 278.757812 Z M 86.984375 277.546875 C 86.792969 277.546875 86.617188 277.449219 86.523438 277.273438 L 86.496094 277.21875 C 86.34375 276.960938 86.441406 276.632812 86.699219 276.484375 C 86.957031 276.335938 87.285156 276.429688 87.433594 276.6875 L 87.460938 276.742188 C 87.609375 277 87.515625 277.328125 87.257812 277.476562 C 87.175781 277.519531 87.082031 277.546875 86.984375 277.546875 Z M 138.679688 276.363281 C 138.597656 276.363281 138.519531 276.347656 138.4375 276.308594 C 138.179688 276.171875 138.070312 275.84375 138.203125 275.585938 L 138.230469 275.53125 C 138.367188 275.273438 138.695312 275.164062 138.953125 275.300781 C 139.210938 275.4375 139.320312 275.765625 139.183594 276.023438 L 139.15625 276.078125 C 139.0625 276.253906 138.871094 276.363281 138.679688 276.363281 Z M 85.746094 275.097656 C 85.542969 275.097656 85.351562 274.976562 85.257812 274.785156 L 85.230469 274.730469 C 85.109375 274.457031 85.230469 274.144531 85.503906 274.023438 C 85.773438 273.898438 86.085938 274.023438 86.210938 274.292969 L 86.238281 274.347656 C 86.359375 274.621094 86.238281 274.933594 85.964844 275.054688 C 85.898438 275.082031 85.816406 275.097656 85.746094 275.097656 Z M 139.808594 273.859375 C 139.742188 273.859375 139.675781 273.847656 139.621094 273.820312 C 139.347656 273.710938 139.210938 273.398438 139.320312 273.125 L 139.347656 273.058594 C 139.457031 272.785156 139.769531 272.648438 140.042969 272.757812 C 140.3125 272.867188 140.449219 273.179688 140.339844 273.453125 L 140.3125 273.519531 C 140.21875 273.722656 140.027344 273.859375 139.808594 273.859375 Z M 84.726562 272.539062 C 84.507812 272.539062 84.292969 272.402344 84.222656 272.171875 L 84.195312 272.105469 C 84.101562 271.820312 84.25 271.519531 84.535156 271.425781 C 84.820312 271.328125 85.121094 271.480469 85.214844 271.765625 L 85.242188 271.832031 C 85.339844 272.117188 85.1875 272.417969 84.917969 272.511719 C 84.847656 272.527344 84.792969 272.539062 84.726562 272.539062 Z M 140.707031 271.261719 C 140.652344 271.261719 140.613281 271.246094 140.558594 271.234375 C 140.273438 271.152344 140.109375 270.851562 140.191406 270.566406 L 140.203125 270.5 C 140.285156 270.214844 140.585938 270.050781 140.871094 270.132812 C 141.15625 270.214844 141.320312 270.511719 141.238281 270.796875 L 141.226562 270.867188 C 141.144531 271.097656 140.9375 271.261719 140.707031 271.261719 Z M 83.964844 269.886719 C 83.71875 269.886719 83.503906 269.722656 83.449219 269.480469 L 83.433594 269.410156 C 83.367188 269.125 83.542969 268.839844 83.828125 268.769531 C 84.113281 268.703125 84.398438 268.878906 84.46875 269.164062 L 84.480469 269.234375 C 84.550781 269.519531 84.375 269.804688 84.085938 269.875 C 84.046875 269.886719 84.003906 269.886719 83.964844 269.886719 Z M 141.347656 268.582031 C 141.320312 268.582031 141.28125 268.582031 141.238281 268.566406 C 140.953125 268.511719 140.761719 268.226562 140.816406 267.941406 L 140.832031 267.875 C 140.886719 267.585938 141.171875 267.398438 141.457031 267.453125 C 141.742188 267.507812 141.933594 267.792969 141.878906 268.078125 L 141.863281 268.144531 C 141.824219 268.402344 141.59375 268.582031 141.347656 268.582031 Z M 83.449219 267.191406 C 83.191406 267.191406 82.957031 267.003906 82.917969 266.730469 L 82.902344 266.664062 C 82.863281 266.363281 83.066406 266.105469 83.367188 266.0625 C 83.664062 266.023438 83.925781 266.226562 83.964844 266.527344 L 83.980469 266.59375 C 84.019531 266.894531 83.816406 267.152344 83.53125 267.207031 C 83.503906 267.191406 83.476562 267.191406 83.449219 267.191406 Z M 141.726562 265.859375 C 141.714844 265.859375 141.6875 265.859375 141.675781 265.859375 C 141.375 265.832031 141.15625 265.574219 141.199219 265.273438 L 141.199219 265.207031 C 141.226562 264.90625 141.484375 264.691406 141.78125 264.730469 C 142.082031 264.757812 142.300781 265.015625 142.257812 265.316406 L 142.257812 265.382812 C 142.246094 265.65625 142 265.859375 141.726562 265.859375 Z M 83.203125 264.457031 C 82.917969 264.457031 82.6875 264.242188 82.671875 263.941406 L 82.671875 263.875 C 82.660156 263.574219 82.890625 263.328125 83.175781 263.316406 C 83.476562 263.300781 83.71875 263.535156 83.734375 263.820312 L 83.734375 263.886719 C 83.746094 264.1875 83.515625 264.429688 83.230469 264.445312 C 83.214844 264.457031 83.203125 264.457031 83.203125 264.457031 Z M 141.863281 263.042969 C 141.566406 263.042969 141.308594 262.867188 141.308594 262.566406 L 141.308594 262.511719 C 141.308594 262.511719 141.308594 262.5 141.308594 262.5 L 141.308594 262.433594 C 141.308594 262.132812 141.550781 261.902344 141.851562 261.902344 C 142.148438 261.902344 142.394531 262.144531 142.394531 262.433594 L 142.394531 262.484375 C 142.394531 262.484375 142.394531 262.5 142.394531 262.5 L 142.394531 262.566406 C 142.394531 262.867188 142.164062 263.042969 141.863281 263.042969 Z M 83.191406 261.695312 C 83.175781 261.695312 83.175781 261.695312 83.164062 261.695312 C 82.863281 261.683594 82.632812 261.4375 82.644531 261.140625 L 82.644531 261.070312 C 82.660156 260.773438 82.917969 260.554688 83.203125 260.566406 C 83.503906 260.582031 83.734375 260.828125 83.707031 261.125 L 83.707031 261.195312 C 83.71875 261.480469 83.476562 261.695312 83.191406 261.695312 Z M 141.742188 260.296875 C 141.46875 260.296875 141.238281 260.09375 141.210938 259.804688 L 141.210938 259.738281 C 141.183594 259.4375 141.402344 259.179688 141.6875 259.152344 C 141.988281 259.125 142.246094 259.34375 142.273438 259.628906 L 142.273438 259.699219 C 142.300781 259.996094 142.082031 260.253906 141.78125 260.28125 C 141.769531 260.296875 141.753906 260.296875 141.742188 260.296875 Z M 83.449219 258.960938 C 83.421875 258.960938 83.394531 258.960938 83.378906 258.960938 C 83.082031 258.921875 82.875 258.648438 82.917969 258.363281 L 82.929688 258.296875 C 82.972656 257.996094 83.242188 257.792969 83.542969 257.847656 C 83.84375 257.886719 84.046875 258.160156 83.992188 258.460938 L 83.980469 258.527344 C 83.9375 258.773438 83.707031 258.960938 83.449219 258.960938 Z M 141.359375 257.574219 C 141.101562 257.574219 140.886719 257.398438 140.832031 257.140625 L 140.816406 257.070312 C 140.761719 256.785156 140.953125 256.5 141.238281 256.445312 C 141.523438 256.390625 141.808594 256.582031 141.863281 256.867188 L 141.878906 256.9375 C 141.933594 257.222656 141.742188 257.507812 141.457031 257.5625 C 141.414062 257.574219 141.386719 257.574219 141.359375 257.574219 Z M 83.953125 256.253906 C 83.910156 256.253906 83.871094 256.253906 83.828125 256.242188 C 83.542969 256.175781 83.367188 255.886719 83.433594 255.601562 L 83.449219 255.535156 C 83.515625 255.25 83.800781 255.070312 84.085938 255.140625 C 84.375 255.207031 84.550781 255.492188 84.480469 255.78125 L 84.46875 255.847656 C 84.414062 256.09375 84.195312 256.253906 83.953125 256.253906 Z M 140.722656 254.894531 C 140.492188 254.894531 140.273438 254.746094 140.203125 254.5 L 140.191406 254.433594 C 140.109375 254.148438 140.273438 253.847656 140.558594 253.765625 C 140.84375 253.683594 141.144531 253.847656 141.226562 254.132812 L 141.238281 254.203125 C 141.320312 254.488281 141.15625 254.785156 140.871094 254.867188 C 140.816406 254.894531 140.761719 254.894531 140.722656 254.894531 Z M 84.714844 253.617188 C 84.660156 253.617188 84.605469 253.601562 84.535156 253.589844 C 84.25 253.492188 84.101562 253.195312 84.195312 252.910156 L 84.222656 252.855469 C 84.320312 252.570312 84.632812 252.417969 84.902344 252.515625 C 85.1875 252.609375 85.339844 252.910156 85.242188 253.195312 L 85.214844 253.261719 C 85.148438 253.480469 84.929688 253.617188 84.714844 253.617188 Z M 139.835938 252.296875 C 139.621094 252.296875 139.414062 252.160156 139.335938 251.957031 L 139.308594 251.902344 C 139.199219 251.628906 139.335938 251.316406 139.605469 251.207031 C 139.878906 251.097656 140.191406 251.234375 140.300781 251.507812 L 140.328125 251.574219 C 140.4375 251.847656 140.300781 252.160156 140.027344 252.269531 C 139.960938 252.28125 139.90625 252.296875 139.835938 252.296875 Z M 85.71875 251.058594 C 85.652344 251.058594 85.570312 251.046875 85.503906 251.019531 C 85.230469 250.894531 85.109375 250.582031 85.230469 250.308594 L 85.257812 250.242188 C 85.378906 249.96875 85.691406 249.847656 85.964844 249.96875 C 86.238281 250.09375 86.359375 250.40625 86.238281 250.679688 L 86.210938 250.730469 C 86.113281 250.9375 85.925781 251.058594 85.71875 251.058594 Z M 138.707031 249.78125 C 138.519531 249.78125 138.328125 249.671875 138.230469 249.480469 L 138.203125 249.425781 C 138.070312 249.167969 138.179688 248.839844 138.4375 248.707031 C 138.695312 248.570312 139.019531 248.679688 139.15625 248.9375 L 139.183594 248.992188 C 139.320312 249.25 139.210938 249.574219 138.953125 249.710938 C 138.871094 249.765625 138.789062 249.78125 138.707031 249.78125 Z M 86.957031 248.597656 C 86.863281 248.597656 86.78125 248.570312 86.699219 248.527344 C 86.441406 248.378906 86.34375 248.050781 86.496094 247.792969 L 86.523438 247.738281 C 86.671875 247.480469 87 247.398438 87.257812 247.535156 C 87.515625 247.683594 87.597656 248.011719 87.460938 248.269531 L 87.433594 248.324219 C 87.324219 248.5 87.148438 248.597656 86.957031 248.597656 Z M 137.347656 247.386719 C 137.171875 247.386719 136.996094 247.289062 136.898438 247.140625 L 136.871094 247.085938 C 136.707031 246.839844 136.789062 246.5 137.035156 246.351562 C 137.28125 246.1875 137.621094 246.269531 137.769531 246.515625 L 137.808594 246.570312 C 137.972656 246.8125 137.890625 247.152344 137.648438 247.304688 C 137.539062 247.371094 137.441406 247.386719 137.347656 247.386719 Z M 88.425781 246.269531 C 88.316406 246.269531 88.210938 246.242188 88.128906 246.175781 C 87.882812 246.011719 87.828125 245.671875 87.992188 245.425781 L 88.03125 245.371094 C 88.195312 245.128906 88.535156 245.074219 88.78125 245.234375 C 89.027344 245.414062 89.082031 245.738281 88.917969 245.984375 L 88.875 246.039062 C 88.765625 246.1875 88.589844 246.269531 88.425781 246.269531 Z M 135.769531 245.140625 C 135.605469 245.140625 135.441406 245.074219 135.347656 244.9375 L 135.308594 244.882812 C 135.128906 244.652344 135.171875 244.3125 135.402344 244.132812 C 135.632812 243.957031 135.972656 244 136.152344 244.230469 L 136.191406 244.285156 C 136.367188 244.515625 136.328125 244.855469 136.097656 245.03125 C 136 245.101562 135.890625 245.140625 135.769531 245.140625 Z M 90.101562 244.09375 C 89.976562 244.09375 89.855469 244.050781 89.761719 243.972656 C 89.527344 243.78125 89.5 243.441406 89.691406 243.222656 L 89.734375 243.167969 C 89.921875 242.9375 90.265625 242.921875 90.496094 243.113281 C 90.726562 243.304688 90.738281 243.644531 90.550781 243.875 L 90.507812 243.929688 C 90.414062 244.023438 90.25 244.09375 90.101562 244.09375 Z M 133.988281 243.046875 C 133.839844 243.046875 133.703125 242.992188 133.59375 242.867188 L 133.550781 242.828125 C 133.347656 242.609375 133.363281 242.269531 133.578125 242.066406 C 133.796875 241.863281 134.136719 241.875 134.339844 242.09375 L 134.394531 242.148438 C 134.601562 242.367188 134.585938 242.707031 134.367188 242.910156 C 134.257812 242.992188 134.125 243.046875 133.988281 243.046875 Z M 91.976562 242.078125 C 91.839844 242.078125 91.707031 242.027344 91.597656 241.917969 C 91.394531 241.699219 91.394531 241.371094 91.609375 241.15625 L 91.664062 241.101562 C 91.882812 240.894531 92.222656 240.894531 92.425781 241.113281 C 92.628906 241.332031 92.628906 241.671875 92.414062 241.875 L 92.371094 241.917969 C 92.25 242.027344 92.113281 242.078125 91.976562 242.078125 Z M 132.027344 241.113281 C 131.90625 241.113281 131.769531 241.074219 131.675781 240.976562 L 131.632812 240.9375 C 131.417969 240.746094 131.390625 240.40625 131.59375 240.175781 C 131.785156 239.957031 132.125 239.929688 132.355469 240.132812 L 132.410156 240.175781 C 132.628906 240.378906 132.65625 240.707031 132.449219 240.9375 C 132.3125 241.058594 132.179688 241.113281 132.027344 241.113281 Z M 94.03125 240.242188 C 93.882812 240.242188 93.71875 240.175781 93.609375 240.039062 C 93.417969 239.808594 93.460938 239.46875 93.691406 239.292969 L 93.746094 239.25 C 93.976562 239.058594 94.316406 239.101562 94.496094 239.332031 C 94.683594 239.5625 94.644531 239.902344 94.414062 240.078125 L 94.359375 240.121094 C 94.261719 240.203125 94.15625 240.242188 94.03125 240.242188 Z M 129.894531 239.386719 C 129.785156 239.386719 129.675781 239.359375 129.578125 239.277344 L 129.527344 239.238281 C 129.28125 239.058594 129.238281 238.734375 129.402344 238.488281 C 129.578125 238.242188 129.921875 238.203125 130.152344 238.367188 L 130.207031 238.40625 C 130.449219 238.582031 130.492188 238.921875 130.316406 239.15625 C 130.21875 239.304688 130.054688 239.386719 129.894531 239.386719 Z M 96.25 238.609375 C 96.074219 238.609375 95.910156 238.527344 95.800781 238.367188 C 95.636719 238.121094 95.707031 237.78125 95.949219 237.617188 L 96.003906 237.578125 C 96.25 237.414062 96.589844 237.480469 96.753906 237.726562 C 96.917969 237.972656 96.847656 238.3125 96.601562 238.476562 L 96.550781 238.515625 C 96.453125 238.582031 96.34375 238.609375 96.25 238.609375 Z M 127.59375 237.863281 C 127.5 237.863281 127.402344 237.835938 127.320312 237.78125 L 127.265625 237.738281 C 127.007812 237.589844 126.925781 237.265625 127.078125 237.003906 C 127.226562 236.746094 127.554688 236.664062 127.8125 236.816406 L 127.867188 236.855469 C 128.125 237.003906 128.207031 237.332031 128.054688 237.589844 C 127.960938 237.765625 127.785156 237.863281 127.59375 237.863281 Z M 98.601562 237.195312 C 98.414062 237.195312 98.222656 237.085938 98.125 236.910156 C 97.992188 236.652344 98.085938 236.324219 98.34375 236.1875 L 98.398438 236.160156 C 98.65625 236.027344 98.984375 236.121094 99.121094 236.378906 C 99.257812 236.636719 99.160156 236.964844 98.902344 237.101562 L 98.847656 237.128906 C 98.78125 237.167969 98.683594 237.195312 98.601562 237.195312 Z M 125.171875 236.554688 C 125.089844 236.554688 125.023438 236.542969 124.941406 236.503906 L 124.886719 236.476562 C 124.613281 236.351562 124.503906 236.027344 124.628906 235.753906 C 124.75 235.480469 125.078125 235.371094 125.347656 235.496094 L 125.402344 235.523438 C 125.675781 235.644531 125.785156 235.972656 125.660156 236.242188 C 125.566406 236.449219 125.375 236.554688 125.171875 236.554688 Z M 101.078125 236 C 100.875 236 100.671875 235.875 100.589844 235.671875 C 100.480469 235.398438 100.601562 235.085938 100.875 234.964844 L 100.941406 234.9375 C 101.214844 234.828125 101.527344 234.953125 101.652344 235.222656 C 101.757812 235.496094 101.636719 235.808594 101.363281 235.929688 L 101.308594 235.957031 C 101.214844 235.984375 101.148438 236 101.078125 236 Z M 122.640625 235.480469 C 122.585938 235.480469 122.519531 235.46875 122.464844 235.453125 L 122.398438 235.425781 C 122.125 235.332031 121.976562 235.019531 122.082031 234.734375 C 122.179688 234.460938 122.492188 234.3125 122.777344 234.421875 L 122.847656 234.449219 C 123.117188 234.542969 123.265625 234.855469 123.171875 235.140625 C 123.0625 235.347656 122.859375 235.480469 122.640625 235.480469 Z M 103.664062 235.046875 C 103.433594 235.046875 103.226562 234.898438 103.148438 234.664062 C 103.050781 234.378906 103.214844 234.082031 103.5 234 L 103.570312 233.984375 C 103.855469 233.890625 104.152344 234.054688 104.234375 234.339844 C 104.332031 234.625 104.167969 234.925781 103.882812 235.003906 L 103.8125 235.019531 C 103.773438 235.046875 103.71875 235.046875 103.664062 235.046875 Z M 120.015625 234.664062 C 119.976562 234.664062 119.921875 234.664062 119.878906 234.652344 L 119.8125 234.636719 C 119.527344 234.570312 119.347656 234.269531 119.429688 233.984375 C 119.5 233.699219 119.796875 233.523438 120.085938 233.605469 L 120.152344 233.617188 C 120.4375 233.699219 120.613281 233.984375 120.53125 234.269531 C 120.464844 234.503906 120.246094 234.664062 120.015625 234.664062 Z M 106.316406 234.351562 C 106.070312 234.351562 105.855469 234.175781 105.800781 233.929688 C 105.730469 233.644531 105.921875 233.359375 106.207031 233.292969 L 106.261719 233.277344 C 106.546875 233.210938 106.847656 233.402344 106.902344 233.6875 C 106.96875 233.972656 106.777344 234.257812 106.492188 234.324219 L 106.425781 234.339844 C 106.398438 234.339844 106.359375 234.351562 106.316406 234.351562 Z M 117.324219 234.082031 C 117.296875 234.082031 117.269531 234.082031 117.242188 234.066406 L 117.171875 234.054688 C 116.886719 234.011719 116.683594 233.726562 116.722656 233.441406 C 116.777344 233.15625 117.050781 232.953125 117.335938 232.992188 L 117.402344 233.007812 C 117.691406 233.058594 117.894531 233.332031 117.839844 233.617188 C 117.8125 233.902344 117.582031 234.082031 117.324219 234.082031 Z M 109.039062 233.902344 C 108.765625 233.902344 108.535156 233.699219 108.507812 233.425781 C 108.464844 233.128906 108.683594 232.871094 108.984375 232.828125 L 109.050781 232.816406 C 109.351562 232.773438 109.609375 232.992188 109.648438 233.292969 C 109.691406 233.589844 109.472656 233.847656 109.171875 233.890625 L 109.105469 233.902344 C 109.078125 233.890625 109.050781 233.902344 109.039062 233.902344 Z M 114.589844 233.769531 C 114.574219 233.769531 114.5625 233.769531 114.546875 233.769531 L 114.480469 233.769531 C 114.179688 233.753906 113.960938 233.496094 113.976562 233.195312 C 113.988281 232.898438 114.246094 232.679688 114.546875 232.691406 L 114.617188 232.691406 C 114.914062 232.707031 115.132812 232.964844 115.117188 233.265625 C 115.105469 233.550781 114.875 233.769531 114.589844 233.769531 Z M 111.773438 233.714844 C 111.484375 233.714844 111.242188 233.480469 111.242188 233.183594 C 111.226562 232.882812 111.472656 232.636719 111.757812 232.625 L 111.828125 232.625 C 112.113281 232.613281 112.371094 232.855469 112.371094 233.140625 C 112.382812 233.441406 112.140625 233.6875 111.855469 233.699219 L 111.773438 233.714844 C 111.785156 233.714844 111.785156 233.714844 111.773438 233.714844 Z M 111.773438 233.714844 " fill-opacity="1" fill-rule="nonzero"/><path fill="#ffffff" d="M 103.824219 244.101562 C 113.195312 242.789062 113.953125 259.570312 105.28125 259.164062 C 98.3125 258.835938 95.679688 245.242188 103.824219 244.101562 " fill-opacity="1" fill-rule="evenodd"/><path fill="#ffffff" d="M 118.886719 244.101562 C 129.210938 241.847656 128.003906 260.183594 118.402344 259.164062 C 110.804688 258.355469 112.285156 245.542969 118.886719 244.101562 " fill-opacity="1" fill-rule="evenodd"/><path fill="#ffffff" d="M 100.425781 264.265625 C 96.753906 272.277344 85.570312 266.617188 86.820312 258.675781 C 88.136719 250.316406 103.09375 254.578125 100.425781 264.265625 " fill-opacity="1" fill-rule="evenodd"/><g clip-path="url(#afa5f3f631)"><path fill="#ffffff" d="M 130.792969 254.304688 C 133.207031 253.835938 136.226562 254.695312 137.351562 256.734375 C 140.460938 262.359375 134.730469 269.234375 129.09375 268.636719 C 125.996094 268.3125 124.207031 265.675781 123.992188 263.292969 C 123.53125 258.191406 127.171875 255.007812 130.792969 254.304688 " fill-opacity="1" fill-rule="evenodd"/></g><g clip-path="url(#42454daa07)"><path fill="#ffffff" d="M 109.898438 261.835938 C 118.410156 260.367188 126.226562 266.503906 124.476562 276.898438 C 124.113281 279.050781 122.261719 282.09375 119.617188 282.242188 C 117.484375 282.367188 114.988281 280.289062 112.328125 280.300781 C 109.03125 280.316406 106.429688 283.242188 103.339844 281.757812 C 100.746094 280.511719 99.695312 275.46875 100.183594 271.796875 C 100.878906 266.507812 104.769531 262.71875 109.898438 261.835938 " fill-opacity="1" fill-rule="evenodd"/></g></svg>